<?xml version="1.0" encoding="UTF-8" standalone="no"?>
<!-- Generator: Adobe Illustrator 15.1.0, SVG Export Plug-In . SVG Version: 6.00 Build 0)  -->

<svg
   xmlns:dc="http://purl.org/dc/elements/1.1/"
   xmlns:cc="http://creativecommons.org/ns#"
   xmlns:rdf="http://www.w3.org/1999/02/22-rdf-syntax-ns#"
   xmlns:svg="http://www.w3.org/2000/svg"
   xmlns="http://www.w3.org/2000/svg"
   xmlns:sodipodi="http://sodipodi.sourceforge.net/DTD/sodipodi-0.dtd"
   xmlns:inkscape="http://www.inkscape.org/namespaces/inkscape"
   version="1.1"
   id="Layer_1"
   x="0px"
   y="0px"
   width="44.993999"
   height="46.995998"
   viewBox="0 0 44.993999 46.995998"
   enable-background="new 0 0 100 100"
   xml:space="preserve"
   inkscape:version="0.91 r"
   sodipodi:docname="Cloud-Snow-Moon.svg"><metadata
     id="metadata229"><rdf:RDF><cc:Work
         rdf:about=""><dc:format>image/svg+xml</dc:format><dc:type
           rdf:resource="http://purl.org/dc/dcmitype/StillImage" /><dc:title></dc:title></cc:Work></rdf:RDF></metadata><defs
     id="defs227" /><sodipodi:namedview
     pagecolor="#ffffff"
     bordercolor="#666666"
     borderopacity="1"
     objecttolerance="10"
     gridtolerance="10"
     guidetolerance="10"
     inkscape:pageopacity="0"
     inkscape:pageshadow="2"
     inkscape:window-width="640"
     inkscape:window-height="480"
     id="namedview225"
     showgrid="false"
     fit-margin-top="0"
     fit-margin-left="0"
     fit-margin-right="0"
     fit-margin-bottom="0"
     inkscape:zoom="2.36"
     inkscape:cx="21.997"
     inkscape:cy="23.639"
     inkscape:window-x="1284"
     inkscape:window-y="285"
     inkscape:window-maximized="0"
     inkscape:current-layer="Layer_1" /><path
     d="m 41.814,20.116 0,0 c 1.369,1.949 2.18,4.319 2.18,6.881 0,5.223 -3.342,9.652 -7.998,11.303 l 0,-4.381 c 2.388,-1.385 3.999,-3.963 3.999,-6.922 0,-4.417 -3.581,-7.999 -7.999,-7.999 -1.601,0 -3.084,0.48 -4.334,1.291 -1.231,-5.317 -5.973,-9.291 -11.664,-9.291 -6.627,0 -11.998,5.373 -11.998,12 0,3.549 1.55,6.729 3.999,8.924 l 0,4.916 C 3.222,34.07 0,28.916 0,22.998 0,14.163 7.162,6.999 15.998,6.999 c 2.002,0 3.914,0.376 5.68,1.048 l 0,0 C 23.313,3.365 27.756,0 32.996,0 c 0.755,0 1.49,0.078 2.207,0.211 -0.131,0.576 -0.207,1.174 -0.207,1.789 0,4.418 3.58,7.998 7.998,7.998 0.616,0 1.213,-0.075 1.789,-0.207 0.133,0.717 0.211,1.453 0.211,2.207 0,3.136 -1.211,5.98 -3.18,8.118 z M 31.207,4.209 c -2.899,0.664 -5.174,2.91 -5.924,5.775 1.918,1.372 3.523,3.152 4.68,5.221 C 30.627,15.092 31.299,15 31.996,15 c 2.617,0 5.033,0.848 7.005,2.271 l 0,0 c 0.858,-0.98 1.485,-2.167 1.786,-3.482 -4.854,-0.905 -8.676,-4.726 -9.58,-9.58 z M 13.998,30.998 c 1.104,0 2,0.896 2,2 0,1.105 -0.896,2 -2,2 -1.104,0 -2,-0.895 -2,-2 0,-1.104 0.895,-2 2,-2 z m 0,8 c 1.104,0 2,0.895 2,2 0,1.104 -0.896,1.998 -2,1.998 -1.104,0 -2,-0.895 -2,-1.998 0,-1.106 0.895,-2 2,-2 z m 7.999,-4 c 1.104,0 2,0.895 2,2 0,1.104 -0.896,2 -2,2 -1.104,0 -1.999,-0.896 -1.999,-2 0,-1.106 0.895,-2 1.999,-2 z m 0,7.998 c 1.104,0 2,0.896 2,2 0,1.105 -0.896,2 -2,2 -1.104,0 -1.999,-0.895 -1.999,-2 0,-1.104 0.895,-2 1.999,-2 z m 7.999,-11.998 c 1.104,0 2,0.896 2,2 0,1.105 -0.896,2 -2,2 -1.104,0 -2,-0.895 -2,-2 0,-1.104 0.896,-2 2,-2 z m 0,8 c 1.104,0 2,0.895 2,2 0,1.104 -0.896,1.998 -2,1.998 -1.104,0 -2,-0.895 -2,-1.998 0,-1.106 0.896,-2 2,-2 z"
     id="path223"
     inkscape:connector-curvature="0"
     style="clip-rule:evenodd;fill-rule:evenodd" /></svg>