<?xml version="1.0" encoding="UTF-8" standalone="no"?>
<!-- Generator: Adobe Illustrator 15.1.0, SVG Export Plug-In . SVG Version: 6.00 Build 0)  -->

<svg
   xmlns:dc="http://purl.org/dc/elements/1.1/"
   xmlns:cc="http://creativecommons.org/ns#"
   xmlns:rdf="http://www.w3.org/1999/02/22-rdf-syntax-ns#"
   xmlns:svg="http://www.w3.org/2000/svg"
   xmlns="http://www.w3.org/2000/svg"
   xmlns:sodipodi="http://sodipodi.sourceforge.net/DTD/sodipodi-0.dtd"
   xmlns:inkscape="http://www.inkscape.org/namespaces/inkscape"
   version="1.1"
   id="Layer_1"
   x="0px"
   y="0px"
   width="44.994999"
   height="46.993999"
   viewBox="0 0 44.994999 46.993999"
   enable-background="new 0 0 100 100"
   xml:space="preserve"
   inkscape:version="0.91 r"
   sodipodi:docname="Cloud-Fog-Moon.svg"><metadata
     id="metadata18"><rdf:RDF><cc:Work
         rdf:about=""><dc:format>image/svg+xml</dc:format><dc:type
           rdf:resource="http://purl.org/dc/dcmitype/StillImage" /><dc:title></dc:title></cc:Work></rdf:RDF></metadata><defs
     id="defs16" /><sodipodi:namedview
     pagecolor="#ffffff"
     bordercolor="#666666"
     borderopacity="1"
     objecttolerance="10"
     gridtolerance="10"
     guidetolerance="10"
     inkscape:pageopacity="0"
     inkscape:pageshadow="2"
     inkscape:window-width="640"
     inkscape:window-height="480"
     id="namedview14"
     showgrid="false"
     fit-margin-top="0"
     fit-margin-left="0"
     fit-margin-right="0"
     fit-margin-bottom="0"
     inkscape:zoom="2.36"
     inkscape:cx="21.997"
     inkscape:cy="23.639"
     inkscape:window-x="0"
     inkscape:window-y="24"
     inkscape:window-maximized="0"
     inkscape:current-layer="Layer_1" /><path
     d="m 41.816,20.113 0,0 c 0.617,0.88 1.102,1.854 1.469,2.884 l 0.019,0 0,0 -4.387,0 0,0 0,0 c -1.384,-2.389 -3.962,-3.999 -6.921,-3.999 -1.6,0 -3.082,0.48 -4.333,1.29 -1.231,-5.316 -5.974,-9.29 -11.665,-9.29 C 9.372,10.998 4,16.37 4,22.997 l 0,0 -4,0 0,0 C 0,14.162 7.163,6.999 15.998,6.999 c 2.003,0 3.914,0.376 5.68,1.048 l 0,0 C 23.313,3.364 27.757,0 32.996,0 33.752,0 34.488,0.078 35.204,0.211 35.072,0.787 34.996,1.384 34.996,2 c 0,4.418 3.582,7.998 7.999,7.998 0.616,0 1.212,-0.076 1.788,-0.207 0.134,0.717 0.212,1.452 0.212,2.207 0,3.134 -1.212,5.978 -3.179,8.115 z M 31.209,4.207 c -2.9,0.663 -5.175,2.91 -5.924,5.774 l 0,0 c 1.916,1.372 3.521,3.153 4.678,5.222 0.664,-0.114 1.338,-0.205 2.033,-0.205 2.619,0 5.033,0.848 7.006,2.271 l 0,0 C 39.86,16.289 40.487,15.1 40.787,13.787 35.934,12.882 32.112,9.061 31.209,4.207 Z M 2,26.996 l 39.996,0 c 1.104,0 1.999,0.896 1.999,2 0,1.104 -0.896,2 -1.999,2 L 2,30.996 c -1.104,0 -2,-0.896 -2,-2 0,-1.104 0.896,-2 2,-2 z m 0,8 39.996,0 c 1.104,0 1.999,0.895 1.999,1.999 0,1.104 -0.896,2 -1.999,2 L 2,38.995 c -1.104,0 -2,-0.896 -2,-2 0,-1.104 0.896,-1.999 2,-1.999 z m 0,7.998 39.996,0 c 1.104,0 1.999,0.896 1.999,2 0,1.104 -0.896,2 -1.999,2 L 2,46.994 c -1.104,0 -2,-0.896 -2,-2 0,-1.104 0.896,-2 2,-2 z"
     id="path12"
     inkscape:connector-curvature="0"
     style="clip-rule:evenodd;fill-rule:evenodd" /></svg>