<?xml version="1.0" encoding="UTF-8" standalone="no"?>
<!-- Generator: Adobe Illustrator 15.1.0, SVG Export Plug-In . SVG Version: 6.00 Build 0)  -->

<svg
   xmlns:dc="http://purl.org/dc/elements/1.1/"
   xmlns:cc="http://creativecommons.org/ns#"
   xmlns:rdf="http://www.w3.org/1999/02/22-rdf-syntax-ns#"
   xmlns:svg="http://www.w3.org/2000/svg"
   xmlns="http://www.w3.org/2000/svg"
   xmlns:sodipodi="http://sodipodi.sourceforge.net/DTD/sodipodi-0.dtd"
   xmlns:inkscape="http://www.inkscape.org/namespaces/inkscape"
   version="1.1"
   id="Layer_1"
   x="0px"
   y="0px"
   width="43.993999"
   height="33.307751"
   viewBox="0 0 43.993999 33.307751"
   enable-background="new 0 0 100 100"
   xml:space="preserve"
   inkscape:version="0.91 r"
   sodipodi:docname="Cloud-Download.svg"><metadata
     id="metadata9"><rdf:RDF><cc:Work
         rdf:about=""><dc:format>image/svg+xml</dc:format><dc:type
           rdf:resource="http://purl.org/dc/dcmitype/StillImage" /><dc:title></dc:title></cc:Work></rdf:RDF></metadata><defs
     id="defs7" /><sodipodi:namedview
     pagecolor="#ffffff"
     bordercolor="#666666"
     borderopacity="1"
     objecttolerance="10"
     gridtolerance="10"
     guidetolerance="10"
     inkscape:pageopacity="0"
     inkscape:pageshadow="2"
     inkscape:window-width="640"
     inkscape:window-height="480"
     id="namedview5"
     showgrid="false"
     fit-margin-top="0"
     fit-margin-left="0"
     fit-margin-right="0"
     fit-margin-bottom="0"
     inkscape:zoom="2.36"
     inkscape:cx="22.053"
     inkscape:cy="16.95275"
     inkscape:window-x="1678"
     inkscape:window-y="95"
     inkscape:window-maximized="0"
     inkscape:current-layer="Layer_1" /><path
     d="m 31.996,31.996 c -0.518,0 -1.287,0 -2.217,0 l 2.101,-2.102 c 0.589,-0.59 1.029,-1.271 1.322,-1.998 3.844,-0.584 6.793,-3.893 6.793,-7.898 0,-4.418 -3.581,-8 -7.999,-8 -1.549,0 -2.982,0.458 -4.207,1.221 C 27.65,12.66 27.431,12.139 27.148,11.655 25.41,7.18 21.087,4 15.998,4 9.371,4 4,9.371 4,15.998 c 0,4.612 2.604,8.61 6.418,10.618 0.195,1.201 0.74,2.354 1.666,3.279 l 1.971,1.971 C 6.138,30.907 0,24.175 0,15.998 0,7.163 7.162,0 15.998,0 c 6.004,0 11.229,3.312 13.965,8.204 0.664,-0.114 1.336,-0.205 2.033,-0.205 6.627,0 11.998,5.372 11.998,12 0,6.624 -5.371,11.997 -11.998,11.997 z m -14.256,-7.758 2.243,2.242 0,-11.827 c 0,-1.104 0.895,-1.999 1.999,-1.999 1.104,0 2,0.895 2,1.999 l 0,11.827 2.242,-2.242 c 0.78,-0.781 2.048,-0.781 2.828,0 0.78,0.781 0.78,2.047 0,2.828 l -5.656,5.656 c -0.78,0.781 -2.047,0.781 -2.828,0 l -5.655,-5.656 c -0.781,-0.781 -0.781,-2.047 0,-2.828 0.78,-0.781 2.046,-0.781 2.827,0 z"
     id="path3"
     inkscape:connector-curvature="0"
     style="clip-rule:evenodd;fill:#231f20;fill-rule:evenodd" /></svg>