<?xml version="1.0" encoding="UTF-8" standalone="no"?>
<!-- Generator: Adobe Illustrator 15.1.0, SVG Export Plug-In . SVG Version: 6.00 Build 0)  -->

<svg
   xmlns:dc="http://purl.org/dc/elements/1.1/"
   xmlns:cc="http://creativecommons.org/ns#"
   xmlns:rdf="http://www.w3.org/1999/02/22-rdf-syntax-ns#"
   xmlns:svg="http://www.w3.org/2000/svg"
   xmlns="http://www.w3.org/2000/svg"
   xmlns:sodipodi="http://sodipodi.sourceforge.net/DTD/sodipodi-0.dtd"
   xmlns:inkscape="http://www.inkscape.org/namespaces/inkscape"
   version="1.1"
   id="Layer_1"
   x="0px"
   y="0px"
   width="44.994999"
   height="44.995998"
   viewBox="0 0 44.994999 44.995998"
   enable-background="new 0 0 100 100"
   xml:space="preserve"
   inkscape:version="0.91 r"
   sodipodi:docname="Cloud-Snow-Moon-Alt.svg"><metadata
     id="metadata238"><rdf:RDF><cc:Work
         rdf:about=""><dc:format>image/svg+xml</dc:format><dc:type
           rdf:resource="http://purl.org/dc/dcmitype/StillImage" /><dc:title></dc:title></cc:Work></rdf:RDF></metadata><defs
     id="defs236" /><sodipodi:namedview
     pagecolor="#ffffff"
     bordercolor="#666666"
     borderopacity="1"
     objecttolerance="10"
     gridtolerance="10"
     guidetolerance="10"
     inkscape:pageopacity="0"
     inkscape:pageshadow="2"
     inkscape:window-width="445"
     inkscape:window-height="417"
     id="namedview234"
     showgrid="false"
     fit-margin-top="0"
     fit-margin-left="0"
     fit-margin-right="0"
     fit-margin-bottom="0"
     inkscape:zoom="2.36"
     inkscape:cx="22.844458"
     inkscape:cy="21.639"
     inkscape:window-x="1238"
     inkscape:window-y="165"
     inkscape:window-maximized="0"
     inkscape:current-layer="Layer_1" /><path
     d="m 41.815,20.116 0,0 c 1.369,1.949 2.18,4.319 2.18,6.881 0,5.223 -3.342,9.652 -7.999,11.303 l 0,-4.381 c 2.389,-1.385 3.999,-3.963 3.999,-6.922 0,-4.417 -3.581,-7.999 -7.999,-7.999 -1.6,0 -3.083,0.48 -4.333,1.291 -1.232,-5.317 -5.974,-9.291 -11.665,-9.291 -6.626,0 -11.998,5.373 -11.998,12 0,3.549 1.55,6.729 3.999,8.924 l 0,4.916 C 3.223,34.07 0,28.916 0,22.998 0,14.163 7.163,6.999 15.998,6.999 c 2.002,0 3.914,0.376 5.68,1.048 l 0,0 C 23.313,3.365 27.756,0 32.996,0 33.751,0 34.487,0.078 35.204,0.211 35.072,0.787 34.996,1.385 34.996,2 c 0,4.418 3.581,7.998 7.999,7.998 0.615,0 1.212,-0.075 1.788,-0.207 0.134,0.717 0.212,1.453 0.212,2.207 0,3.136 -1.212,5.98 -3.18,8.118 z M 31.208,4.209 c -2.9,0.664 -5.174,2.91 -5.924,5.775 l 0,0 c 1.917,1.372 3.522,3.152 4.679,5.221 C 30.627,15.092 31.3,15 31.996,15 c 2.618,0 5.033,0.847 7.005,2.271 l 0,0 c 0.859,-0.98 1.486,-2.167 1.786,-3.482 -4.854,-0.905 -8.675,-4.726 -9.579,-9.58 z M 15.07,32.998 c 0.552,-0.957 1.775,-1.283 2.731,-0.732 l 2.196,1.268 0,-2.535 c 0,-1.104 0.896,-2 2,-2 1.104,0 1.999,0.896 1.999,2 l 0,2.535 2.196,-1.268 c 0.956,-0.551 2.18,-0.225 2.731,0.732 0.553,0.957 0.225,2.18 -0.731,2.732 l -2.195,1.268 2.196,1.268 c 0.956,0.553 1.284,1.775 0.731,2.732 -0.552,0.955 -1.775,1.283 -2.731,0.73 l -2.196,-1.267 0,2.535 c 0,1.105 -0.896,2 -1.999,2 -1.104,0 -2,-0.895 -2,-2 l 0,-2.535 -2.196,1.268 c -0.956,0.553 -2.18,0.225 -2.731,-0.73 -0.552,-0.957 -0.225,-2.18 0.731,-2.732 l 2.196,-1.268 -2.196,-1.268 C 14.846,35.177 14.518,33.955 15.07,32.998 Z m 6.928,6 c 1.104,0 1.999,-0.896 1.999,-2 0,-1.105 -0.896,-2 -1.999,-2 -1.104,0 -2,0.895 -2,2 0,1.103 0.895,2 2,2 z"
     id="path232"
     inkscape:connector-curvature="0"
     style="clip-rule:evenodd;fill-rule:evenodd" /></svg>