<?xml version="1.0" encoding="UTF-8" standalone="no"?>
<!-- Generator: Adobe Illustrator 15.1.0, SVG Export Plug-In . SVG Version: 6.00 Build 0)  -->

<svg
   xmlns:dc="http://purl.org/dc/elements/1.1/"
   xmlns:cc="http://creativecommons.org/ns#"
   xmlns:rdf="http://www.w3.org/1999/02/22-rdf-syntax-ns#"
   xmlns:svg="http://www.w3.org/2000/svg"
   xmlns="http://www.w3.org/2000/svg"
   xmlns:sodipodi="http://sodipodi.sourceforge.net/DTD/sodipodi-0.dtd"
   xmlns:inkscape="http://www.inkscape.org/namespaces/inkscape"
   version="1.1"
   id="Layer_1"
   x="0px"
   y="0px"
   width="43.993999"
   height="36.994751"
   viewBox="0 0 43.993999 36.994751"
   enable-background="new 0 0 100 100"
   xml:space="preserve"
   inkscape:version="0.91 r"
   sodipodi:docname="Cloud-Rain-Alt.svg"><metadata
     id="metadata153"><rdf:RDF><cc:Work
         rdf:about=""><dc:format>image/svg+xml</dc:format><dc:type
           rdf:resource="http://purl.org/dc/dcmitype/StillImage" /><dc:title></dc:title></cc:Work></rdf:RDF></metadata><defs
     id="defs151" /><sodipodi:namedview
     pagecolor="#ffffff"
     bordercolor="#666666"
     borderopacity="1"
     objecttolerance="10"
     gridtolerance="10"
     guidetolerance="10"
     inkscape:pageopacity="0"
     inkscape:pageshadow="2"
     inkscape:window-width="640"
     inkscape:window-height="480"
     id="namedview149"
     showgrid="false"
     inkscape:zoom="2.36"
     inkscape:cx="21.998"
     inkscape:cy="20.63875"
     inkscape:window-x="1118"
     inkscape:window-y="192"
     inkscape:window-maximized="0"
     inkscape:current-layer="Layer_1"
     fit-margin-top="0"
     fit-margin-left="0"
     fit-margin-right="0"
     fit-margin-bottom="0" /><path
     d="m 31.997,31.996 c -0.266,0 -0.614,0 -1,0 0,-1.372 -0.319,-2.742 -0.943,-4 0.777,0 1.451,0 1.943,0 4.418,0 7.999,-3.58 7.999,-7.998 0,-4.418 -3.581,-7.999 -7.999,-7.999 -1.6,0 -3.083,0.481 -4.334,1.29 C 26.432,7.973 21.69,4 15.999,4 9.372,4 4.001,9.372 4.001,15.998 c 0,5.953 4.339,10.879 10.023,11.822 -0.637,1.217 -0.969,2.549 -1.012,3.887 C 5.606,30.308 0,23.812 0,15.998 0,7.163 7.162,0 15.998,0 22.002,0 27.227,3.312 29.963,8.204 30.627,8.09 31.3,7.999 31.996,7.999 c 6.627,0 11.998,5.372 11.998,11.999 0,6.627 -5.37,11.998 -11.997,11.998 z m -9.998,-7.071 3.535,3.535 c 1.951,1.953 1.951,5.118 0,7.07 -1.953,1.953 -5.119,1.953 -7.07,0 -1.953,-1.952 -1.953,-5.117 0,-7.07 l 3.535,-3.535 z"
     id="path147"
     inkscape:connector-curvature="0"
     style="clip-rule:evenodd;fill-rule:evenodd" /></svg>