<?xml version="1.0" encoding="UTF-8" standalone="no"?>
<!-- Generator: Adobe Illustrator 15.1.0, SVG Export Plug-In . SVG Version: 6.00 Build 0)  -->

<svg
   xmlns:dc="http://purl.org/dc/elements/1.1/"
   xmlns:cc="http://creativecommons.org/ns#"
   xmlns:rdf="http://www.w3.org/1999/02/22-rdf-syntax-ns#"
   xmlns:svg="http://www.w3.org/2000/svg"
   xmlns="http://www.w3.org/2000/svg"
   xmlns:sodipodi="http://sodipodi.sourceforge.net/DTD/sodipodi-0.dtd"
   xmlns:inkscape="http://www.inkscape.org/namespaces/inkscape"
   version="1.1"
   id="Layer_1"
   x="0px"
   y="0px"
   width="44.993999"
   height="38.995998"
   viewBox="0 0 44.993999 38.995998"
   enable-background="new 0 0 100 100"
   xml:space="preserve"
   inkscape:version="0.91 r"
   sodipodi:docname="Cloud-Moon.svg"><metadata
     id="metadata135"><rdf:RDF><cc:Work
         rdf:about=""><dc:format>image/svg+xml</dc:format><dc:type
           rdf:resource="http://purl.org/dc/dcmitype/StillImage" /><dc:title></dc:title></cc:Work></rdf:RDF></metadata><defs
     id="defs133" /><sodipodi:namedview
     pagecolor="#ffffff"
     bordercolor="#666666"
     borderopacity="1"
     objecttolerance="10"
     gridtolerance="10"
     guidetolerance="10"
     inkscape:pageopacity="0"
     inkscape:pageshadow="2"
     inkscape:window-width="640"
     inkscape:window-height="480"
     id="namedview131"
     showgrid="false"
     fit-margin-top="0"
     fit-margin-left="0"
     fit-margin-right="0"
     fit-margin-bottom="0"
     inkscape:zoom="2.36"
     inkscape:cx="22.052"
     inkscape:cy="15.639"
     inkscape:window-x="1134"
     inkscape:window-y="58"
     inkscape:window-maximized="0"
     inkscape:current-layer="Layer_1" /><path
     d="m 41.815,20.115 0,0 c 1.368,1.949 2.179,4.318 2.179,6.883 0,6.625 -5.371,11.998 -11.998,11.998 -2.775,0 -12.801,0 -15.998,0 C 7.162,38.996 0,31.834 0,22.998 0,14.162 7.162,7 15.998,7 18,7 19.912,7.375 21.678,8.047 l 0,0 C 23.313,3.365 27.756,0 32.996,0 33.751,0 34.487,0.078 35.203,0.212 35.072,0.787 34.996,1.385 34.996,2 c 0,4.418 3.581,7.999 7.998,7.999 0.616,0 1.213,-0.076 1.789,-0.208 0.133,0.717 0.211,1.453 0.211,2.208 -10e-4,3.133 -1.212,5.979 -3.179,8.116 z M 3.999,22.998 c 0,6.627 5.371,11.998 11.998,11.998 3.616,0 12.979,0 15.998,0 4.418,0 7.999,-3.582 7.999,-7.998 0,-4.418 -3.581,-8 -7.999,-8 -1.6,0 -3.083,0.482 -4.334,1.291 -1.231,-5.316 -5.973,-9.29 -11.664,-9.29 -6.627,0 -11.998,5.372 -11.998,11.999 z M 23.548,8.902 c 0.001,0 0.002,0 0.002,0 0,0 -0.001,0 -0.002,0 z m 7.659,-4.695 c -2.9,0.664 -5.175,2.91 -5.925,5.775 l 0,0 c 1.918,1.372 3.523,3.152 4.68,5.22 0.664,-0.113 1.337,-0.205 2.033,-0.205 2.618,0 5.033,0.85 7.005,2.271 l 0,0 C 39.858,16.289 40.485,15.1 40.786,13.786 35.933,12.882 32.111,9.063 31.207,4.207 Z"
     id="path129"
     inkscape:connector-curvature="0"
     style="clip-rule:evenodd;fill-rule:evenodd" /></svg>