<?xml version="1.0" encoding="UTF-8" standalone="no"?>
<!-- Generator: Adobe Illustrator 15.1.0, SVG Export Plug-In . SVG Version: 6.00 Build 0)  -->

<svg
   xmlns:dc="http://purl.org/dc/elements/1.1/"
   xmlns:cc="http://creativecommons.org/ns#"
   xmlns:rdf="http://www.w3.org/1999/02/22-rdf-syntax-ns#"
   xmlns:svg="http://www.w3.org/2000/svg"
   xmlns="http://www.w3.org/2000/svg"
   xmlns:sodipodi="http://sodipodi.sourceforge.net/DTD/sodipodi-0.dtd"
   xmlns:inkscape="http://www.inkscape.org/namespaces/inkscape"
   version="1.1"
   id="Layer_1"
   x="0px"
   y="0px"
   width="53.993"
   height="54.993"
   viewBox="0 0 53.993 54.993"
   enable-background="new 0 0 100 100"
   xml:space="preserve"
   inkscape:version="0.91 r"
   sodipodi:docname="Cloud-Wind-Moon.svg"><metadata
     id="metadata292"><rdf:RDF><cc:Work
         rdf:about=""><dc:format>image/svg+xml</dc:format><dc:type
           rdf:resource="http://purl.org/dc/dcmitype/StillImage" /><dc:title></dc:title></cc:Work></rdf:RDF></metadata><defs
     id="defs290" /><sodipodi:namedview
     pagecolor="#ffffff"
     bordercolor="#666666"
     borderopacity="1"
     objecttolerance="10"
     gridtolerance="10"
     guidetolerance="10"
     inkscape:pageopacity="0"
     inkscape:pageshadow="2"
     inkscape:window-width="640"
     inkscape:window-height="480"
     id="namedview288"
     showgrid="false"
     fit-margin-top="0"
     fit-margin-left="0"
     fit-margin-right="0"
     fit-margin-bottom="0"
     inkscape:zoom="2.36"
     inkscape:cx="21.997"
     inkscape:cy="31.638"
     inkscape:window-x="1215"
     inkscape:window-y="186"
     inkscape:window-maximized="0"
     inkscape:current-layer="Layer_1" /><path
     d="m 48.744,42.943 0,0.051 -0.75,0 -2.999,0 c -1.104,0 -2,-0.895 -2,-2 0,-1.104 0.896,-1.999 2,-1.999 l 2.999,0 c 1.104,0 2,-0.896 2,-2 0,-1.104 -0.896,-1.999 -2,-1.999 -1.104,0 -2,-0.896 -2,-2 0,-1.105 0.896,-2 2,-2 0.139,0 0.273,0.014 0.403,0.041 3.122,0.211 5.596,2.783 5.596,5.958 0,3.058 -2.29,5.577 -5.249,5.948 z m -5.46,-19.946 0.01,0 c 0.213,0.602 0.385,1.222 0.5,1.863 -1.394,-0.995 -3.05,-1.646 -4.849,-1.815 -0.009,-0.017 -0.021,-0.031 -0.031,-0.048 l 0.003,0 c -1.384,-2.389 -3.962,-3.999 -6.921,-3.999 -1.6,0 -3.083,0.48 -4.333,1.29 -1.232,-5.316 -5.974,-9.29 -11.665,-9.29 C 9.372,10.998 4,16.37 4,22.997 l 0,0 c 0,6.626 5.372,11.999 11.998,11.999 2.598,0 8.152,0 12.199,0 l 9.798,0 c 1.104,0 2,-0.896 2,-2 0,-1.105 -0.896,-2 -2,-2 -1.104,0 -1.999,-0.896 -1.999,-2 0,-1.104 0.896,-2 1.999,-2 0.139,0 0.273,0.014 0.403,0.041 3.122,0.211 5.597,2.783 5.597,5.959 0,3.059 -2.291,5.577 -5.25,5.947 l 0,0.052 -0.75,0 -7.985,0 c -4.012,0 -11.357,0 -14.012,0 -1.104,0 -1.999,0.896 -1.999,1.999 0,1.105 0.895,2 1.999,2 l 21.997,0 0.75,0 0,0.053 c 2.959,0.369 5.25,2.889 5.25,5.947 0,3.175 -2.475,5.747 -5.597,5.958 -0.13,0.026 -0.265,0.041 -0.403,0.041 -1.104,0 -1.999,-0.896 -1.999,-2 0,-1.104 0.896,-1.999 1.999,-1.999 1.104,0 2,-0.896 2,-2 0,-1.105 -0.896,-2 -2,-2 l -21.997,0 -0.75,0 0,-0.052 c -2.958,-0.37 -5.249,-2.89 -5.249,-5.948 0,-1.055 0.294,-2.032 0.773,-2.89 C 4.506,35.936 0,30 0,22.997 0,14.162 7.163,6.999 15.998,6.999 18,6.999 19.912,7.375 21.678,8.047 23.313,3.364 27.756,0 32.996,0 33.751,0 34.487,0.078 35.204,0.211 35.072,0.787 34.996,1.384 34.996,2 c 0,4.418 3.581,7.998 7.999,7.998 0.615,0 1.212,-0.076 1.788,-0.207 0.134,0.717 0.212,1.452 0.212,2.207 0,3.135 -1.212,5.979 -3.18,8.115 0.618,0.88 1.102,1.854 1.469,2.884 z M 31.208,4.207 c -2.9,0.663 -5.174,2.91 -5.924,5.774 l 0,0 c 1.917,1.372 3.522,3.153 4.679,5.222 0.664,-0.114 1.337,-0.205 2.033,-0.205 2.618,0 5.033,0.848 7.005,2.271 0.859,-0.98 1.486,-2.169 1.786,-3.482 -4.854,-0.905 -8.675,-4.726 -9.579,-9.58 z"
     id="path286"
     inkscape:connector-curvature="0"
     style="clip-rule:evenodd;fill-rule:evenodd" /></svg>