<?xml version="1.0" encoding="UTF-8" standalone="no"?>
<!-- Generator: Adobe Illustrator 15.1.0, SVG Export Plug-In . SVG Version: 6.00 Build 0)  -->

<svg
   xmlns:dc="http://purl.org/dc/elements/1.1/"
   xmlns:cc="http://creativecommons.org/ns#"
   xmlns:rdf="http://www.w3.org/1999/02/22-rdf-syntax-ns#"
   xmlns:svg="http://www.w3.org/2000/svg"
   xmlns="http://www.w3.org/2000/svg"
   xmlns:sodipodi="http://sodipodi.sourceforge.net/DTD/sodipodi-0.dtd"
   xmlns:inkscape="http://www.inkscape.org/namespaces/inkscape"
   version="1.1"
   id="Layer_1"
   x="0px"
   y="0px"
   width="43.994999"
   height="39.994999"
   viewBox="0 0 43.994999 39.994999"
   enable-background="new 0 0 100 100"
   xml:space="preserve"
   inkscape:version="0.91 r"
   sodipodi:docname="Cloud-Fog.svg"><metadata
     id="metadata9"><rdf:RDF><cc:Work
         rdf:about=""><dc:format>image/svg+xml</dc:format><dc:type
           rdf:resource="http://purl.org/dc/dcmitype/StillImage" /><dc:title></dc:title></cc:Work></rdf:RDF></metadata><defs
     id="defs7" /><sodipodi:namedview
     pagecolor="#ffffff"
     bordercolor="#666666"
     borderopacity="1"
     objecttolerance="10"
     gridtolerance="10"
     guidetolerance="10"
     inkscape:pageopacity="0"
     inkscape:pageshadow="2"
     inkscape:window-width="640"
     inkscape:window-height="480"
     id="namedview5"
     showgrid="false"
     fit-margin-top="0"
     fit-margin-left="0"
     fit-margin-right="0"
     fit-margin-bottom="0"
     inkscape:zoom="2.36"
     inkscape:cx="21.997"
     inkscape:cy="23.639"
     inkscape:window-x="1589"
     inkscape:window-y="149"
     inkscape:window-maximized="0"
     inkscape:current-layer="Layer_1" /><path
     d="M 41.995,31.997 2,31.997 c -1.104,0 -2,-0.896 -2,-2 0,-1.105 0.896,-2 2,-2 l 39.995,0 c 1.104,0 2,0.895 2,2 0,1.103 -0.895,2 -2,2 z m 0,-8 -39.995,0 c -1.104,0 -2,-0.895 -2,-2 0,-1.104 0.896,-2 2,-2 l 39.995,0 c 1.104,0 2,0.896 2,2 0,1.105 -0.895,2 -2,2 z M 31.996,11.999 c -1.601,0 -3.083,0.48 -4.333,1.291 C 26.431,7.973 21.689,3.999 15.998,3.999 9.372,3.999 4,9.372 4,15.999 l -4,0 C 0,7.164 7.163,0 15.998,0 22.002,0 27.227,3.312 29.963,8.204 30.627,8.091 31.3,7.999 31.996,7.999 c 5.222,0 9.652,3.342 11.301,8 l -4.381,0 c -1.384,-2.39 -3.961,-4 -6.92,-4 z M 2,35.995 l 39.995,0 c 1.104,0 2,0.896 2,2 0,1.105 -0.896,2 -2,2 L 2,39.995 c -1.104,0 -2,-0.895 -2,-2 0,-1.104 0.895,-2 2,-2 z"
     id="path3"
     inkscape:connector-curvature="0"
     style="clip-rule:evenodd;fill-rule:evenodd" /></svg>