<?xml version="1.0" encoding="UTF-8" standalone="no"?>
<!-- Generator: Adobe Illustrator 15.1.0, SVG Export Plug-In . SVG Version: 6.00 Build 0)  -->

<svg
   xmlns:dc="http://purl.org/dc/elements/1.1/"
   xmlns:cc="http://creativecommons.org/ns#"
   xmlns:rdf="http://www.w3.org/1999/02/22-rdf-syntax-ns#"
   xmlns:svg="http://www.w3.org/2000/svg"
   xmlns="http://www.w3.org/2000/svg"
   xmlns:sodipodi="http://sodipodi.sourceforge.net/DTD/sodipodi-0.dtd"
   xmlns:inkscape="http://www.inkscape.org/namespaces/inkscape"
   version="1.1"
   id="Layer_1"
   x="0px"
   y="0px"
   width="43.995998"
   height="29.996"
   viewBox="0 0 43.995998 29.996"
   enable-background="new 0 0 100 100"
   xml:space="preserve"
   inkscape:version="0.91 r"
   sodipodi:docname="Cloud-Fog-Alt.svg"><metadata
     id="metadata9"><rdf:RDF><cc:Work
         rdf:about=""><dc:format>image/svg+xml</dc:format><dc:type
           rdf:resource="http://purl.org/dc/dcmitype/StillImage" /><dc:title></dc:title></cc:Work></rdf:RDF></metadata><defs
     id="defs7" /><sodipodi:namedview
     pagecolor="#ffffff"
     bordercolor="#666666"
     borderopacity="1"
     objecttolerance="10"
     gridtolerance="10"
     guidetolerance="10"
     inkscape:pageopacity="0"
     inkscape:pageshadow="2"
     inkscape:window-width="640"
     inkscape:window-height="480"
     id="namedview5"
     showgrid="false"
     fit-margin-top="0"
     fit-margin-left="0"
     fit-margin-right="0"
     fit-margin-bottom="0"
     inkscape:zoom="2.36"
     inkscape:cx="21.997"
     inkscape:cy="13.64"
     inkscape:window-x="0"
     inkscape:window-y="24"
     inkscape:window-maximized="0"
     inkscape:current-layer="Layer_1" /><path
     d="m 1.174,21.997 c -0.262,-0.646 -0.473,-1.315 -0.648,-2 l 43.47,0 c 0,0.684 -0.07,1.348 -0.181,2 l -42.641,0 z M 8.26,1.999 C 10.554,0.728 13.19,0 15.998,0 c 2.806,0 5.436,0.73 7.727,1.999 l -15.465,0 z M 0.139,13.998 c 0.085,-0.682 0.218,-1.347 0.387,-1.999 l 40.396,0 c 0.551,0.613 1.039,1.281 1.455,1.999 l -42.238,0 z M 1.174,9.999 c 0.281,-0.693 0.613,-1.359 0.984,-2 l 27.682,0 c 0.04,0.068 0.084,0.135 0.123,0.205 0.664,-0.114 1.338,-0.205 2.033,-0.205 2.451,0 4.729,0.738 6.627,2 l -37.449,0 z m 2.347,-4 c 0.58,-0.723 1.225,-1.388 1.92,-2 l 21.122,0 c 0.69,0.61 1.326,1.28 1.903,2 l -24.945,0 z m 40.293,11.998 -43.675,0 C 0.057,17.341 0,16.677 0,15.998 l 43.298,0 c 0.227,0.643 0.401,1.311 0.516,1.999 z m -0.516,6 c -0.247,0.699 -0.555,1.367 -0.921,2 l -38.856,0 c -0.505,-0.629 -0.957,-1.299 -1.363,-2 l 41.14,0 z m -37.857,4 35.48,0 c -0.68,0.758 -1.447,1.434 -2.299,1.999 l -30.362,0 C 7.244,29.434 6.306,28.756 5.441,27.997 Z"
     id="path3"
     inkscape:connector-curvature="0"
     style="clip-rule:evenodd;fill-rule:evenodd" /></svg>