<?xml version="1.0" encoding="UTF-8" standalone="no"?>
<!-- Generator: Adobe Illustrator 15.1.0, SVG Export Plug-In . SVG Version: 6.00 Build 0)  -->

<svg
   xmlns:dc="http://purl.org/dc/elements/1.1/"
   xmlns:cc="http://creativecommons.org/ns#"
   xmlns:rdf="http://www.w3.org/1999/02/22-rdf-syntax-ns#"
   xmlns:svg="http://www.w3.org/2000/svg"
   xmlns="http://www.w3.org/2000/svg"
   xmlns:sodipodi="http://sodipodi.sourceforge.net/DTD/sodipodi-0.dtd"
   xmlns:inkscape="http://www.inkscape.org/namespaces/inkscape"
   version="1.1"
   id="Layer_1"
   x="0px"
   y="0px"
   width="53.993"
   height="47.993999"
   viewBox="0 0 53.993 47.993999"
   enable-background="new 0 0 100 100"
   xml:space="preserve"
   inkscape:version="0.91 r"
   sodipodi:docname="Cloud-Wind.svg"><metadata
     id="metadata283"><rdf:RDF><cc:Work
         rdf:about=""><dc:format>image/svg+xml</dc:format><dc:type
           rdf:resource="http://purl.org/dc/dcmitype/StillImage" /><dc:title></dc:title></cc:Work></rdf:RDF></metadata><defs
     id="defs281" /><sodipodi:namedview
     pagecolor="#ffffff"
     bordercolor="#666666"
     borderopacity="1"
     objecttolerance="10"
     gridtolerance="10"
     guidetolerance="10"
     inkscape:pageopacity="0"
     inkscape:pageshadow="2"
     inkscape:window-width="640"
     inkscape:window-height="480"
     id="namedview279"
     showgrid="false"
     fit-margin-top="0"
     fit-margin-left="0"
     fit-margin-right="0"
     fit-margin-bottom="0"
     inkscape:zoom="2.36"
     inkscape:cx="21.997"
     inkscape:cy="31.638"
     inkscape:window-x="1269"
     inkscape:window-y="156"
     inkscape:window-maximized="0"
     inkscape:current-layer="Layer_1" /><path
     d="m 48.743,35.944 0,0.051 -0.749,0 -3,0 c -1.104,0 -2,-0.895 -2,-2 0,-1.104 0.896,-1.999 2,-1.999 l 3,0 c 1.104,0 1.999,-0.896 1.999,-2 0,-1.104 -0.895,-1.999 -1.999,-1.999 -1.104,0 -2,-0.896 -2,-2 0,-1.105 0.896,-2 2,-2 0.138,0 0.272,0.014 0.402,0.041 3.122,0.211 5.597,2.783 5.597,5.958 0,3.058 -2.291,5.577 -5.25,5.948 z M 37.995,23.997 c -1.104,0 -2,-0.896 -2,-2 0,-1.104 0.896,-2 2,-2 0.138,0 0.272,0.014 0.403,0.041 3.121,0.211 5.596,2.783 5.596,5.959 0,3.059 -2.291,5.577 -5.249,5.947 l 0,0.052 -0.75,0 -7.985,0 c -4.012,0 -11.358,0 -14.012,0 -1.104,0 -2,0.896 -2,1.999 0,1.105 0.896,2 2,2 l 21.997,0 0.75,0 0,0.053 c 2.958,0.369 5.249,2.889 5.249,5.947 0,3.175 -2.475,5.747 -5.596,5.958 -0.131,0.026 -0.266,0.041 -0.403,0.041 -1.104,0 -2,-0.896 -2,-2 0,-1.104 0.896,-1.999 2,-1.999 1.104,0 2,-0.896 2,-2 0,-1.105 -0.896,-2 -2,-2 l -21.997,0 -0.75,0 0,-0.052 c -2.959,-0.37 -5.25,-2.89 -5.25,-5.948 0,-1.055 0.294,-2.032 0.773,-2.89 C 4.506,28.937 0,23.001 0,15.998 0,7.163 7.162,0 15.998,0 c 6.004,0 11.229,3.312 13.965,8.204 0.664,-0.114 1.336,-0.205 2.033,-0.205 5.896,0 10.788,4.256 11.798,9.862 -1.395,-0.995 -3.05,-1.646 -4.849,-1.815 -1.377,-2.416 -3.971,-4.047 -6.949,-4.047 -1.601,0 -3.084,0.48 -4.334,1.29 -1.231,-5.316 -5.973,-9.29 -11.664,-9.29 -6.627,0 -11.999,5.372 -11.999,11.999 0,6.626 5.372,11.999 11.999,11.999 2.598,0 8.152,0 12.199,0 l 9.798,0 c 1.104,0 2,-0.896 2,-2 0,-1.106 -0.895,-2 -2,-2 z"
     id="path277"
     inkscape:connector-curvature="0"
     style="clip-rule:evenodd;fill-rule:evenodd" /></svg>