<?xml version="1.0" encoding="UTF-8" standalone="no"?>
<!-- Generator: Adobe Illustrator 15.1.0, SVG Export Plug-In . SVG Version: 6.00 Build 0)  -->

<svg
   xmlns:dc="http://purl.org/dc/elements/1.1/"
   xmlns:cc="http://creativecommons.org/ns#"
   xmlns:rdf="http://www.w3.org/1999/02/22-rdf-syntax-ns#"
   xmlns:svg="http://www.w3.org/2000/svg"
   xmlns="http://www.w3.org/2000/svg"
   xmlns:sodipodi="http://sodipodi.sourceforge.net/DTD/sodipodi-0.dtd"
   xmlns:inkscape="http://www.inkscape.org/namespaces/inkscape"
   version="1.1"
   id="Layer_1"
   x="0px"
   y="0px"
   width="46.993999"
   height="61.993"
   viewBox="0 0 46.993999 61.993"
   enable-background="new 0 0 100 100"
   xml:space="preserve"
   inkscape:version="0.91 r"
   sodipodi:docname="Cloud-Hail-Moon-Alt.svg"><metadata
     id="metadata81"><rdf:RDF><cc:Work
         rdf:about=""><dc:format>image/svg+xml</dc:format><dc:type
           rdf:resource="http://purl.org/dc/dcmitype/StillImage" /><dc:title></dc:title></cc:Work></rdf:RDF></metadata><defs
     id="defs79" /><sodipodi:namedview
     pagecolor="#ffffff"
     bordercolor="#666666"
     borderopacity="1"
     objecttolerance="10"
     gridtolerance="10"
     guidetolerance="10"
     inkscape:pageopacity="0"
     inkscape:pageshadow="2"
     inkscape:window-width="640"
     inkscape:window-height="480"
     id="namedview77"
     showgrid="false"
     fit-margin-top="0"
     fit-margin-left="0"
     fit-margin-right="0"
     fit-margin-bottom="0"
     inkscape:zoom="2.36"
     inkscape:cx="21.997"
     inkscape:cy="29.639"
     inkscape:window-x="1225"
     inkscape:window-y="221"
     inkscape:window-maximized="0"
     inkscape:current-layer="Layer_1" /><path
     d="m 44.994,53.993 c -1.104,0 -1.999,-0.895 -1.999,-2 0,-1.104 0.896,-1.998 1.999,-1.998 1.105,0 2,0.895 2,1.998 0,1.105 -0.894,2 -2,2 z M 41.815,29.114 c 1.369,1.949 2.18,4.318 2.18,6.881 0,5.223 -3.343,9.652 -7.999,11.303 l 0,-4.381 c 2.389,-1.385 4,-3.963 4,-6.922 0,-4.416 -3.582,-7.998 -8,-7.998 -1.6,0 -3.083,0.48 -4.333,1.291 C 26.432,23.972 21.689,19.997 15.998,19.997 9.372,19.997 4,25.37 4,31.997 c 0,1.404 0.252,2.748 0.697,3.998 l 0,0 c 0.68,1.91 1.822,3.6 3.303,4.926 l 0,4.916 C 4.34,43.716 1.607,40.189 0.523,35.995 0.191,34.716 0,33.38 0,31.997 0,23.162 7.163,15.998 15.998,15.998 c 2.002,0 3.914,0.376 5.68,1.048 1.635,-4.682 6.078,-8.047 11.318,-8.047 0.756,0 1.491,0.078 2.208,0.211 -0.132,0.576 -0.208,1.174 -0.208,1.789 0,4.418 3.582,7.998 7.999,7.998 0.616,0 1.212,-0.075 1.788,-0.207 0.133,0.717 0.211,1.453 0.211,2.207 0,3.134 -1.211,5.978 -3.179,8.117 z M 31.209,13.206 c -2.9,0.664 -5.175,2.91 -5.925,5.775 l 0,0 c 1.917,1.372 3.522,3.152 4.679,5.22 0.664,-0.113 1.338,-0.205 2.033,-0.205 2.618,0 5.033,0.848 7.006,2.271 0.858,-0.98 1.485,-2.168 1.785,-3.482 -4.853,-0.903 -8.675,-4.724 -9.578,-9.579 z M 29.996,0 l 0,0 0,0 0,0 z M 3,54.993 c 1.104,0 2,0.896 2,2 0,1.105 -0.896,2 -2,2 -1.104,0 -2,-0.895 -2,-2 0,-1.104 0.895,-2 2,-2 z m 9.999,-16.998 c 0,-1.104 -0.104,-2 0.999,-2 l 0,0 c 1.105,0 1,0.896 1,2 l 0,23.998 -1.999,0 0,0 0,0 c 0,-2.209 -1.79,-4 -3.999,-4 l 0,-2 c 1.543,0 2.936,0.6 3.999,1.557 l 0,-19.555 z m 8.999,13.998 c -1.104,0 -1,-0.895 -1,-1.998 l 0,-8 c 0,-1.104 -0.104,-2 1,-2 1.104,0 1,0.896 1,2 l 0,8 c 0,1.103 0.103,1.998 -1,1.998 z m 0,4 c 1.104,0 2,0.896 2,2 0,1.104 -0.896,2 -2,2 -1.104,0 -2,-0.896 -2,-2 0,-1.104 0.895,-2 2,-2 z m 7.998,-19.998 0,0 c 1.105,0 1,0.896 1,2 l 0,18.016 c 1.824,-2.434 4.723,-4.018 8,-4.018 l 0,2 c -4.418,0 -8,3.582 -8,8 l -1.999,0 c 0,-0.273 0.019,-0.539 0.04,-0.807 -0.053,-0.334 -0.04,-0.744 -0.04,-1.193 l 0,-21.998 c 0,-1.104 -0.104,-2 0.999,-2 z"
     id="path75"
     inkscape:connector-curvature="0"
     style="clip-rule:evenodd;fill-rule:evenodd" /></svg>