<?xml version="1.0" encoding="UTF-8" standalone="no"?>
<!-- Generator: Adobe Illustrator 15.1.0, SVG Export Plug-In . SVG Version: 6.00 Build 0)  -->

<svg
   xmlns:dc="http://purl.org/dc/elements/1.1/"
   xmlns:cc="http://creativecommons.org/ns#"
   xmlns:rdf="http://www.w3.org/1999/02/22-rdf-syntax-ns#"
   xmlns:svg="http://www.w3.org/2000/svg"
   xmlns="http://www.w3.org/2000/svg"
   xmlns:sodipodi="http://sodipodi.sourceforge.net/DTD/sodipodi-0.dtd"
   xmlns:inkscape="http://www.inkscape.org/namespaces/inkscape"
   version="1.1"
   id="Layer_1"
   x="0px"
   y="0px"
   width="43.993999"
   height="33.34"
   viewBox="0 0 43.993999 33.34"
   enable-background="new 0 0 100 100"
   xml:space="preserve"
   inkscape:version="0.91 r"
   sodipodi:docname="Cloud-Upload.svg"><metadata
     id="metadata274"><rdf:RDF><cc:Work
         rdf:about=""><dc:format>image/svg+xml</dc:format><dc:type
           rdf:resource="http://purl.org/dc/dcmitype/StillImage" /><dc:title></dc:title></cc:Work></rdf:RDF></metadata><defs
     id="defs272" /><sodipodi:namedview
     pagecolor="#ffffff"
     bordercolor="#666666"
     borderopacity="1"
     objecttolerance="10"
     gridtolerance="10"
     guidetolerance="10"
     inkscape:pageopacity="0"
     inkscape:pageshadow="2"
     inkscape:window-width="640"
     inkscape:window-height="480"
     id="namedview270"
     showgrid="false"
     fit-margin-top="0"
     fit-margin-left="0"
     fit-margin-right="0"
     fit-margin-bottom="0"
     inkscape:zoom="2.36"
     inkscape:cx="22.054"
     inkscape:cy="16.984"
     inkscape:window-x="1042"
     inkscape:window-y="174"
     inkscape:window-maximized="0"
     inkscape:current-layer="Layer_1" /><path
     d="m 31.997,31.997 c -0.832,0 -2.324,0 -4.081,0 0.024,-0.219 0.065,-0.432 0.065,-0.656 l 0,-3.344 c 1.681,0 3.127,0 4.016,0 4.418,0 7.999,-3.582 7.999,-7.998 0,-4.418 -3.581,-8 -7.999,-8 -1.23,0 -2.389,0.289 -3.428,0.788 L 26.951,11.169 C 25.095,6.952 20.903,4 15.999,4 9.372,4 4.001,9.371 4.001,15.998 c 0,6.622 5.363,11.989 11.982,11.999 l 0,3.344 c 0,0.225 0.042,0.438 0.066,0.656 -0.016,0 -0.035,0 -0.051,0 C 7.162,31.997 0,24.835 0,15.998 0,7.163 7.162,0 15.998,0 22.002,0 27.227,3.312 29.963,8.204 30.627,8.09 31.3,7.999 31.996,7.999 c 6.627,0 11.998,5.372 11.998,12 10e-4,6.625 -5.37,11.998 -11.997,11.998 z M 14.913,21.754 c -0.781,-0.779 -0.781,-2.047 0,-2.826 l 5.656,-5.657 c 0.78,-0.781 2.047,-0.781 2.828,0 l 5.655,5.657 c 0.781,0.779 0.781,2.047 0,2.826 -0.78,0.781 -2.047,0.781 -2.827,0 l -2.243,-2.242 0,11.828 c 0,1.104 -0.896,2 -1.999,2 -1.105,0 -2,-0.896 -2,-2 l 0,-11.828 -2.242,2.242 c -0.781,0.782 -2.047,0.782 -2.828,0 z"
     id="path268"
     inkscape:connector-curvature="0"
     style="clip-rule:evenodd;fill:#231f20;fill-rule:evenodd" /></svg>