<?xml version="1.0" encoding="UTF-8" standalone="no"?>
<!-- Generator: Adobe Illustrator 15.1.0, SVG Export Plug-In . SVG Version: 6.00 Build 0)  -->

<svg
   xmlns:dc="http://purl.org/dc/elements/1.1/"
   xmlns:cc="http://creativecommons.org/ns#"
   xmlns:rdf="http://www.w3.org/1999/02/22-rdf-syntax-ns#"
   xmlns:svg="http://www.w3.org/2000/svg"
   xmlns="http://www.w3.org/2000/svg"
   xmlns:sodipodi="http://sodipodi.sourceforge.net/DTD/sodipodi-0.dtd"
   xmlns:inkscape="http://www.inkscape.org/namespaces/inkscape"
   version="1.1"
   id="Layer_1"
   x="0px"
   y="0px"
   width="43.994999"
   height="41.622002"
   viewBox="0 0 43.994999 41.622002"
   enable-background="new 0 0 100 100"
   xml:space="preserve"
   inkscape:version="0.91 r"
   sodipodi:docname="Cloud-Refresh.svg"><metadata
     id="metadata202"><rdf:RDF><cc:Work
         rdf:about=""><dc:format>image/svg+xml</dc:format><dc:type
           rdf:resource="http://purl.org/dc/dcmitype/StillImage" /><dc:title></dc:title></cc:Work></rdf:RDF></metadata><defs
     id="defs200" /><sodipodi:namedview
     pagecolor="#ffffff"
     bordercolor="#666666"
     borderopacity="1"
     objecttolerance="10"
     gridtolerance="10"
     guidetolerance="10"
     inkscape:pageopacity="0"
     inkscape:pageshadow="2"
     inkscape:window-width="640"
     inkscape:window-height="480"
     id="namedview198"
     showgrid="false"
     fit-margin-top="0"
     fit-margin-left="0"
     fit-margin-right="0"
     fit-margin-bottom="0"
     inkscape:zoom="2.36"
     inkscape:cx="22.054"
     inkscape:cy="25.265"
     inkscape:window-x="1287"
     inkscape:window-y="195"
     inkscape:window-maximized="0"
     inkscape:current-layer="Layer_1" /><path
     d="m 35.962,31.309 c -0.068,-1.402 -0.34,-2.746 -0.791,-4.01 2.83,-1.229 4.824,-4.018 4.824,-7.3 0,-4.418 -3.58,-8 -7.998,-8 -1.6,0 -3.084,0.481 -4.334,1.29 C 26.433,7.973 21.69,4 15.999,4 9.372,4 4,9.371 4,15.998 4,20.17 6.143,23.826 9.375,25.974 8.787,27.204 8.376,28.533 8.168,29.931 3.298,27.189 0,21.985 0,15.998 0,7.163 7.163,0 15.999,0 22.003,0 27.228,3.312 29.964,8.204 30.628,8.09 31.3,7.999 31.997,7.999 c 6.627,0 11.998,5.372 11.998,12 0,5.234 -3.357,9.673 -8.033,11.31 z m -13.963,-9.686 0,0.018 2.984,0 -2.227,-2.227 c -0.781,-0.781 -0.781,-2.047 0,-2.829 0.779,-0.78 2.047,-0.78 2.826,0 l 5.656,5.657 c 0.781,0.78 0.781,2.046 0,2.827 l -5.656,5.656 c -0.779,0.781 -2.047,0.781 -2.826,0 -0.781,-0.781 -0.781,-2.047 0,-2.828 l 2.258,-2.258 -3.016,0 0,0 c -3.314,0 -6,2.686 -6,6 0,3.312 2.686,5.998 6,5.998 3.312,0 5.998,-2.686 5.998,-5.998 0,-0.156 -0.033,-0.301 -0.045,-0.453 l 3.312,-3.312 c 0.469,1.158 0.732,2.422 0.732,3.748 0,5.523 -4.477,10 -9.998,10 -5.523,0 -10,-4.477 -10,-10 C 12,26.1 16.476,21.623 21.999,21.623 Z"
     id="path196"
     inkscape:connector-curvature="0"
     style="clip-rule:evenodd;fill:#231f20;fill-rule:evenodd" /></svg>