<?xml version="1.0" encoding="UTF-8" standalone="no"?>
<!-- Generator: Adobe Illustrator 15.1.0, SVG Export Plug-In . SVG Version: 6.00 Build 0)  -->

<svg
   xmlns:dc="http://purl.org/dc/elements/1.1/"
   xmlns:cc="http://creativecommons.org/ns#"
   xmlns:rdf="http://www.w3.org/1999/02/22-rdf-syntax-ns#"
   xmlns:svg="http://www.w3.org/2000/svg"
   xmlns="http://www.w3.org/2000/svg"
   xmlns:sodipodi="http://sodipodi.sourceforge.net/DTD/sodipodi-0.dtd"
   xmlns:inkscape="http://www.inkscape.org/namespaces/inkscape"
   version="1.1"
   id="Layer_1"
   x="0px"
   y="0px"
   width="44.994999"
   height="50.993"
   viewBox="0 0 44.994999 50.993"
   enable-background="new 0 0 100 100"
   xml:space="preserve"
   inkscape:version="0.91 r"
   sodipodi:docname="Cloud-Lightning-Moon.svg"><metadata
     id="metadata117"><rdf:RDF><cc:Work
         rdf:about=""><dc:format>image/svg+xml</dc:format><dc:type
           rdf:resource="http://purl.org/dc/dcmitype/StillImage" /><dc:title></dc:title></cc:Work></rdf:RDF></metadata><defs
     id="defs115" /><sodipodi:namedview
     pagecolor="#ffffff"
     bordercolor="#666666"
     borderopacity="1"
     objecttolerance="10"
     gridtolerance="10"
     guidetolerance="10"
     inkscape:pageopacity="0"
     inkscape:pageshadow="2"
     inkscape:window-width="640"
     inkscape:window-height="480"
     id="namedview113"
     showgrid="false"
     fit-margin-top="0"
     fit-margin-left="0"
     fit-margin-right="0"
     fit-margin-bottom="0"
     inkscape:zoom="2.36"
     inkscape:cx="21.998"
     inkscape:cy="27.638"
     inkscape:window-x="984"
     inkscape:window-y="173"
     inkscape:window-maximized="0"
     inkscape:current-layer="Layer_1" /><path
     d="m 41.817,20.113 0,0 c 1.004,1.431 1.699,3.09 2.003,4.883 l -0.004,0 c 0.109,0.652 0.18,1.317 0.18,2 0,6.627 -5.372,11.999 -11.999,11.999 -0.279,0 -0.648,0 -1.062,0 l 3.584,-4.412 c 3.181,-1.057 5.478,-4.051 5.478,-7.587 0,-0.691 -0.098,-1.359 -0.263,-2 l 0,0 c -0.89,-3.447 -4.011,-5.999 -7.737,-5.999 -1.6,0 -3.082,0.481 -4.333,1.291 -1.231,-5.316 -5.974,-9.29 -11.665,-9.29 -6.626,0 -11.998,5.372 -11.998,11.999 0,0.683 0.07,1.348 0.18,1.999 l -0.014,0 c 0.764,4.548 4.088,8.223 8.438,9.505 l -1.35,3.778 C 5.352,36.448 0.924,31.288 0.139,24.996 l 0,0 C 0.057,24.34 0,23.676 0,22.997 0,14.161 7.163,6.999 15.998,6.999 c 2.003,0 3.914,0.375 5.68,1.048 l 0,0 C 23.313,3.364 27.757,0 32.996,0 c 0.756,0 1.492,0.078 2.208,0.211 -0.132,0.576 -0.208,1.173 -0.208,1.788 0,4.418 3.582,7.999 7.999,7.999 0.616,0 1.212,-0.076 1.788,-0.207 0.134,0.716 0.212,1.452 0.212,2.207 0.001,3.133 -1.211,5.978 -3.178,8.115 z M 31.21,4.207 c -2.9,0.663 -5.175,2.909 -5.924,5.774 l 0,0 c 1.916,1.372 3.521,3.153 4.678,5.222 0.664,-0.114 1.338,-0.205 2.033,-0.205 2.619,0 5.033,0.848 7.006,2.271 l 0,0 c 0.858,-0.979 1.485,-2.168 1.785,-3.482 -4.853,-0.906 -8.675,-4.726 -9.578,-9.58 z m -11.211,20.789 9.999,0 -5.999,9.999 6.999,0 -12.999,15.998 3.6,-11.998 -6.599,0 4.999,-13.999 z"
     id="path111"
     inkscape:connector-curvature="0"
     style="clip-rule:evenodd;fill-rule:evenodd" /></svg>