<?xml version="1.0" encoding="UTF-8" standalone="no"?>
<!-- Generator: Adobe Illustrator 15.1.0, SVG Export Plug-In . SVG Version: 6.00 Build 0)  -->

<svg
   xmlns:dc="http://purl.org/dc/elements/1.1/"
   xmlns:cc="http://creativecommons.org/ns#"
   xmlns:rdf="http://www.w3.org/1999/02/22-rdf-syntax-ns#"
   xmlns:svg="http://www.w3.org/2000/svg"
   xmlns="http://www.w3.org/2000/svg"
   xmlns:sodipodi="http://sodipodi.sourceforge.net/DTD/sodipodi-0.dtd"
   xmlns:inkscape="http://www.inkscape.org/namespaces/inkscape"
   version="1.1"
   id="Layer_1"
   x="0px"
   y="0px"
   width="53.993"
   height="63.992001"
   viewBox="0 0 53.993 63.992001"
   enable-background="new 0 0 100 100"
   xml:space="preserve"
   inkscape:version="0.91 r"
   sodipodi:docname="Cloud-Wind-Sun.svg"><metadata
     id="metadata301"><rdf:RDF><cc:Work
         rdf:about=""><dc:format>image/svg+xml</dc:format><dc:type
           rdf:resource="http://purl.org/dc/dcmitype/StillImage" /><dc:title></dc:title></cc:Work></rdf:RDF></metadata><defs
     id="defs299" /><sodipodi:namedview
     pagecolor="#ffffff"
     bordercolor="#666666"
     borderopacity="1"
     objecttolerance="10"
     gridtolerance="10"
     guidetolerance="10"
     inkscape:pageopacity="0"
     inkscape:pageshadow="2"
     inkscape:window-width="640"
     inkscape:window-height="480"
     id="namedview297"
     showgrid="false"
     fit-margin-top="0"
     fit-margin-left="0"
     fit-margin-right="0"
     fit-margin-bottom="0"
     inkscape:zoom="2.36"
     inkscape:cx="21.996"
     inkscape:cy="31.638"
     inkscape:window-x="1373"
     inkscape:window-y="257"
     inkscape:window-maximized="0"
     inkscape:current-layer="Layer_1" /><path
     d="m 51.993,25.997 -4,0 c -1.104,0 -1.999,-0.896 -1.999,-2 0,-1.104 0.895,-2 1.999,-2 l 4,0 c 1.104,0 2,0.896 2,2 0,1.104 -0.895,2 -2,2 z M 44.137,12.684 c -0.781,0.781 -2.048,0.781 -2.828,0 -0.781,-0.781 -0.781,-2.047 0,-2.828 l 2.828,-2.828 c 0.78,-0.781 2.047,-0.781 2.827,0 0.781,0.781 0.781,2.047 0,2.828 l -2.827,2.828 z m -2.949,15.608 0,0 c 0.912,1.087 1.63,2.34 2.114,3.704 l -0.01,0 c 0.213,0.602 0.385,1.222 0.5,1.863 -1.394,-0.995 -3.049,-1.646 -4.848,-1.815 -0.01,-0.017 -0.022,-0.031 -0.032,-0.048 l 0.003,0 c -1.384,-2.389 -3.961,-3.999 -6.92,-3.999 -1.601,0 -3.084,0.48 -4.334,1.29 -1.231,-5.316 -5.974,-9.29 -11.665,-9.29 -6.626,0 -11.998,5.372 -11.998,11.999 l 0,0 c 0,6.626 5.372,11.999 11.998,11.999 2.599,0 8.153,0 12.2,0 l 9.798,0 c 1.104,0 1.999,-0.896 1.999,-2 0,-1.105 -0.895,-2 -1.999,-2 -1.104,0 -2,-0.896 -2,-2 0,-1.104 0.896,-2 2,-2 0.138,0 0.272,0.014 0.402,0.041 3.122,0.211 5.597,2.783 5.597,5.959 0,3.059 -2.291,5.577 -5.249,5.947 l 0,0.052 -0.75,0 -7.985,0 c -4.012,0 -11.358,0 -14.013,0 -1.104,0 -1.999,0.896 -1.999,1.999 0,1.105 0.896,2 1.999,2 l 21.998,0 0.75,0 0,0.053 c 2.958,0.369 5.249,2.889 5.249,5.947 0,3.175 -2.475,5.747 -5.597,5.958 -0.13,0.026 -0.265,0.041 -0.402,0.041 -1.104,0 -2,-0.896 -2,-2 0,-1.104 0.896,-1.999 2,-1.999 1.104,0 1.999,-0.896 1.999,-2 0,-1.105 -0.895,-2 -1.999,-2 l -21.997,0 -0.749,0 0,-0.052 c -2.959,-0.37 -5.25,-2.89 -5.25,-5.948 0,-1.055 0.294,-2.032 0.773,-2.89 C 4.505,44.935 0,38.999 0,31.996 0,23.161 7.162,15.998 15.997,15.998 c 1.573,0 3.09,0.232 4.524,0.655 2.195,-2.828 5.617,-4.654 9.475,-4.654 6.626,0 11.998,5.371 11.998,11.998 0,1.515 -0.293,2.959 -0.806,4.295 z M 29.996,15.998 c -2.213,0 -4.215,0.898 -5.663,2.351 2.341,1.435 4.286,3.451 5.63,5.854 0.663,-0.114 1.336,-0.205 2.033,-0.205 2.125,0 4.118,0.559 5.85,1.527 l 0,0 c 0.096,-0.494 0.149,-1.005 0.149,-1.527 0,-4.419 -3.582,-8 -7.999,-8 z m 0,-7.999 c -1.104,0 -2,-0.896 -2,-2 l 0,-3.999 c 0,-1.104 0.896,-2 2,-2 1.104,0 2,0.896 2,2 l 0,3.999 c 0,1.104 -0.896,2 -2,2 z M 15.855,12.684 13.027,9.856 c -0.781,-0.781 -0.781,-2.047 0,-2.828 0.781,-0.781 2.047,-0.781 2.828,0 l 2.828,2.828 c 0.781,0.781 0.781,2.047 0,2.828 -0.781,0.781 -2.046,0.781 -2.828,0 z m 27.139,37.309 c 0,-1.104 0.896,-1.999 2,-1.999 l 2.999,0 c 1.104,0 2,-0.896 2,-2 0,-1.104 -0.896,-1.999 -2,-1.999 -1.104,0 -1.999,-0.896 -1.999,-2 0,-1.105 0.895,-2 1.999,-2 0.139,0 0.273,0.014 0.403,0.041 3.122,0.211 5.597,2.783 5.597,5.958 0,3.059 -2.291,5.577 -5.25,5.948 l 0,0.051 -0.75,0 -2.999,0 c -1.104,0 -2,-0.895 -2,-2 z"
     id="path295"
     inkscape:connector-curvature="0"
     style="clip-rule:evenodd;fill-rule:evenodd" /></svg>