<?xml version="1.0" encoding="UTF-8" standalone="no"?>
<!-- Generator: Adobe Illustrator 15.1.0, SVG Export Plug-In . SVG Version: 6.00 Build 0)  -->

<svg
   xmlns:dc="http://purl.org/dc/elements/1.1/"
   xmlns:cc="http://creativecommons.org/ns#"
   xmlns:rdf="http://www.w3.org/1999/02/22-rdf-syntax-ns#"
   xmlns:svg="http://www.w3.org/2000/svg"
   xmlns="http://www.w3.org/2000/svg"
   xmlns:sodipodi="http://sodipodi.sourceforge.net/DTD/sodipodi-0.dtd"
   xmlns:inkscape="http://www.inkscape.org/namespaces/inkscape"
   version="1.1"
   id="Layer_1"
   x="0px"
   y="0px"
   width="44.993999"
   height="50.995998"
   viewBox="0 0 44.993999 50.995998"
   enable-background="new 0 0 100 100"
   xml:space="preserve"
   inkscape:version="0.91 r"
   sodipodi:docname="Cloud-Hail-Moon.svg"><metadata
     id="metadata72"><rdf:RDF><cc:Work
         rdf:about=""><dc:format>image/svg+xml</dc:format><dc:type
           rdf:resource="http://purl.org/dc/dcmitype/StillImage" /><dc:title></dc:title></cc:Work></rdf:RDF></metadata><defs
     id="defs70" /><sodipodi:namedview
     pagecolor="#ffffff"
     bordercolor="#666666"
     borderopacity="1"
     objecttolerance="10"
     gridtolerance="10"
     guidetolerance="10"
     inkscape:pageopacity="0"
     inkscape:pageshadow="2"
     inkscape:window-width="640"
     inkscape:window-height="480"
     id="namedview68"
     showgrid="false"
     fit-margin-top="0"
     fit-margin-left="0"
     fit-margin-right="0"
     fit-margin-bottom="0"
     inkscape:zoom="2.36"
     inkscape:cx="21.997"
     inkscape:cy="27.639"
     inkscape:window-x="874"
     inkscape:window-y="189"
     inkscape:window-maximized="0"
     inkscape:current-layer="Layer_1" /><path
     d="m 41.815,20.115 0,0 c 1.369,1.949 2.18,4.32 2.18,6.882 0,5.223 -3.343,9.652 -8,11.301 l 0,-4.381 c 2.389,-1.383 4,-3.961 4,-6.92 0,-4.417 -3.581,-7.999 -7.999,-7.999 -1.601,0 -3.083,0.48 -4.333,1.291 -1.232,-5.317 -5.974,-9.29 -11.665,-9.29 C 9.372,10.999 4,16.371 4,22.997 c 0,3.55 1.55,6.728 3.999,8.925 l 0,4.916 C 3.222,34.07 0,28.916 0,22.997 0,14.162 7.163,7 15.998,7 18,7 19.912,7.375 21.678,8.047 l 0,0 C 23.313,3.365 27.756,0 32.996,0 33.751,0 34.487,0.078 35.204,0.212 35.072,0.787 34.996,1.385 34.996,2 c 0,4.418 3.581,7.999 7.999,7.999 0.615,0 1.212,-0.076 1.788,-0.208 0.133,0.717 0.211,1.453 0.211,2.207 0,3.136 -1.211,5.98 -3.179,8.117 z M 31.208,4.208 c -2.9,0.664 -5.174,2.91 -5.924,5.775 l 0,0 c 1.917,1.372 3.521,3.152 4.679,5.221 0.664,-0.113 1.337,-0.205 2.033,-0.205 2.618,0 5.032,0.848 7.005,2.271 l 0,0 c 0.858,-0.98 1.485,-2.168 1.786,-3.482 -4.854,-0.904 -8.675,-4.724 -9.579,-9.58 z m -17.21,34.788 c -1.104,0 -0.999,-0.895 -0.999,-1.998 l 0,-8 c 0,-1.104 -0.105,-2 0.999,-2 1.104,0 1,0.896 1,2 l 0,8 c 0,1.103 0.104,1.998 -1,1.998 z m 0,4 c 1.104,0 2,0.896 2,2 0,1.105 -0.896,2 -2,2 -1.104,0 -1.999,-0.895 -1.999,-2 0,-1.104 0.894,-2 1.999,-2 z m 7.999,0 c -1.104,0 -1,-0.895 -1,-2 l 0,-7.998 c 0,-1.105 -0.104,-2 1,-2 1.104,0 1,0.895 1,2 l 0,7.998 c 0,1.105 0.104,2 -1,2 z m 0,4 c 1.104,0 2,0.895 2,2 0,1.104 -0.896,2 -2,2 -1.104,0 -1.999,-0.896 -1.999,-2 0,-1.106 0.895,-2 1.999,-2 z m 7.999,-8 c -1.104,0 -1,-0.895 -1,-1.998 l 0,-8 c 0,-1.104 -0.104,-2 1,-2 1.104,0 1,0.896 1,2 l 0,8 c 0,1.103 0.105,1.998 -1,1.998 z m 0,4 c 1.104,0 2,0.896 2,2 0,1.105 -0.896,2 -2,2 -1.104,0 -1.999,-0.895 -1.999,-2 0,-1.104 0.895,-2 1.999,-2 z"
     id="path66"
     inkscape:connector-curvature="0"
     style="clip-rule:evenodd;fill-rule:evenodd" /></svg>