<?xml version="1.0" encoding="UTF-8" standalone="no"?>
<!-- Generator: Adobe Illustrator 15.1.0, SVG Export Plug-In . SVG Version: 6.00 Build 0)  -->

<svg
   xmlns:dc="http://purl.org/dc/elements/1.1/"
   xmlns:cc="http://creativecommons.org/ns#"
   xmlns:rdf="http://www.w3.org/1999/02/22-rdf-syntax-ns#"
   xmlns:svg="http://www.w3.org/2000/svg"
   xmlns="http://www.w3.org/2000/svg"
   xmlns:sodipodi="http://sodipodi.sourceforge.net/DTD/sodipodi-0.dtd"
   xmlns:inkscape="http://www.inkscape.org/namespaces/inkscape"
   version="1.1"
   id="Layer_1"
   x="0px"
   y="0px"
   width="44.993999"
   height="49.448002"
   viewBox="0 0 44.993999 49.448002"
   enable-background="new 0 0 100 100"
   xml:space="preserve"
   inkscape:version="0.91 r"
   sodipodi:docname="Cloud-Drizzle-Moon-Alt.svg"><metadata
     id="metadata9"><rdf:RDF><cc:Work
         rdf:about=""><dc:format>image/svg+xml</dc:format><dc:type
           rdf:resource="http://purl.org/dc/dcmitype/StillImage" /><dc:title></dc:title></cc:Work></rdf:RDF></metadata><defs
     id="defs7" /><sodipodi:namedview
     pagecolor="#ffffff"
     bordercolor="#666666"
     borderopacity="1"
     objecttolerance="10"
     gridtolerance="10"
     guidetolerance="10"
     inkscape:pageopacity="0"
     inkscape:pageshadow="2"
     inkscape:window-width="640"
     inkscape:window-height="480"
     id="namedview5"
     showgrid="false"
     fit-margin-top="0"
     fit-margin-left="0"
     fit-margin-right="0"
     fit-margin-bottom="0"
     inkscape:zoom="2.36"
     inkscape:cx="22.052"
     inkscape:cy="26.09"
     inkscape:window-x="699"
     inkscape:window-y="24"
     inkscape:window-maximized="0"
     inkscape:current-layer="Layer_1" /><path
     d="m 41.815,20.116 c 1.369,1.949 2.179,4.318 2.179,6.882 l 0,0 c 0,5.227 -3.349,9.66 -8.013,11.305 -0.027,-1.336 -0.434,-2.66 -1.223,-3.807 3.055,-1.127 5.236,-4.055 5.236,-7.498 l 0,0 0,0 c 0,-4.417 -3.581,-8 -7.999,-8 -1.601,0 -3.083,0.482 -4.334,1.291 -1.231,-5.316 -5.973,-9.29 -11.664,-9.29 -6.627,0 -11.999,5.372 -11.999,11.999 0,1.404 0.254,2.746 0.698,4 l 0.015,0 c 0.975,2.74 2.895,5.031 5.394,6.445 L 10.048,33.5 C 9.067,34.48 8.452,35.684 8.176,36.945 4.425,34.838 1.625,31.259 0.524,26.998 l 0,0 C 0.194,25.717 0,24.381 0,22.998 0,14.163 7.162,7 15.998,7 18,7 19.912,7.375 21.677,8.047 23.313,3.365 27.756,0 32.996,0 33.751,0 34.487,0.078 35.203,0.212 35.071,0.787 34.995,1.385 34.995,2 c 0,4.418 3.582,7.999 8,7.999 0.615,0 1.212,-0.076 1.787,-0.208 0.134,0.717 0.212,1.453 0.212,2.208 -10e-4,3.135 -1.212,5.981 -3.179,8.117 z M 31.207,4.209 c -2.9,0.664 -5.175,2.91 -5.924,5.775 l 0,0 c 1.917,1.372 3.521,3.152 4.679,5.221 C 30.626,15.092 31.299,15 31.995,15 c 2.618,0 5.032,0.849 7.005,2.271 0.858,-0.979 1.485,-2.168 1.786,-3.482 -4.854,-0.905 -8.675,-4.725 -9.579,-9.58 z m -16.21,29.999 2.121,2.121 c 1.172,1.172 1.172,3.07 0,4.242 -1.171,1.172 -3.07,1.172 -4.242,0 -1.171,-1.172 -1.171,-3.07 0,-4.242 l 2.121,-2.121 z m 6.999,7.998 2.121,2.121 c 1.172,1.172 1.172,3.072 0,4.242 -1.171,1.172 -3.07,1.172 -4.242,0 -1.171,-1.17 -1.171,-3.07 0,-4.242 l 2.121,-2.121 z m 6.999,-7.998 2.121,2.121 c 1.172,1.172 1.172,3.07 0,4.242 -1.171,1.172 -3.07,1.172 -4.242,0 -1.171,-1.172 -1.171,-3.07 0,-4.242 l 2.121,-2.121 z"
     id="path3"
     inkscape:connector-curvature="0"
     style="clip-rule:evenodd;fill-rule:evenodd" /></svg>