<?xml version="1.0" encoding="UTF-8" standalone="no"?>
<!-- Generator: Adobe Illustrator 15.1.0, SVG Export Plug-In . SVG Version: 6.00 Build 0)  -->

<svg
   xmlns:dc="http://purl.org/dc/elements/1.1/"
   xmlns:cc="http://creativecommons.org/ns#"
   xmlns:rdf="http://www.w3.org/1999/02/22-rdf-syntax-ns#"
   xmlns:svg="http://www.w3.org/2000/svg"
   xmlns="http://www.w3.org/2000/svg"
   xmlns:sodipodi="http://sodipodi.sourceforge.net/DTD/sodipodi-0.dtd"
   xmlns:inkscape="http://www.inkscape.org/namespaces/inkscape"
   version="1.1"
   id="Layer_1"
   x="0px"
   y="0px"
   width="44.993999"
   height="36.994999"
   viewBox="0 0 44.993999 36.994999"
   enable-background="new 0 0 100 100"
   xml:space="preserve"
   inkscape:version="0.91 r"
   sodipodi:docname="Cloud-Fog-Moon-Alt.svg"><metadata
     id="metadata27"><rdf:RDF><cc:Work
         rdf:about=""><dc:format>image/svg+xml</dc:format><dc:type
           rdf:resource="http://purl.org/dc/dcmitype/StillImage" /><dc:title></dc:title></cc:Work></rdf:RDF></metadata><defs
     id="defs25" /><sodipodi:namedview
     pagecolor="#ffffff"
     bordercolor="#666666"
     borderopacity="1"
     objecttolerance="10"
     gridtolerance="10"
     guidetolerance="10"
     inkscape:pageopacity="0"
     inkscape:pageshadow="2"
     inkscape:window-width="640"
     inkscape:window-height="480"
     id="namedview23"
     showgrid="false"
     fit-margin-top="0"
     fit-margin-left="0"
     fit-margin-right="0"
     fit-margin-bottom="0"
     inkscape:zoom="2.36"
     inkscape:cx="21.997"
     inkscape:cy="13.64"
     inkscape:window-x="0"
     inkscape:window-y="24"
     inkscape:window-maximized="0"
     inkscape:current-layer="Layer_1" /><path
     d="m 39.211,16.998 c 0.746,-0.927 1.303,-2.013 1.576,-3.211 -4.854,-0.904 -8.676,-4.726 -9.579,-9.58 -2.559,0.585 -4.626,2.404 -5.594,4.791 l -17.354,0 c 2.293,-1.271 4.93,-1.999 7.738,-1.999 2.002,0 3.914,0.376 5.68,1.048 C 23.313,3.364 27.756,0 32.996,0 33.751,0 34.487,0.078 35.203,0.211 35.072,0.787 34.996,1.384 34.996,2 c 0,4.418 3.581,7.998 7.998,7.998 0.616,0 1.213,-0.076 1.789,-0.207 0.133,0.717 0.211,1.452 0.211,2.207 0,1.789 -0.405,3.478 -1.109,5 l -4.674,0 z m 4.783,9.998 c 0,0.684 -0.07,1.348 -0.18,2 l -42.64,0 c -0.262,-0.646 -0.473,-1.315 -0.649,-2 l 43.469,0 z m -0.697,4 c -0.247,0.699 -0.555,1.367 -0.92,2 l -38.857,0 c -0.505,-0.629 -0.956,-1.299 -1.362,-2 l 41.139,0 z m -2.375,4 c -0.68,0.758 -1.447,1.434 -2.299,1.999 l -30.363,0 C 7.244,36.433 6.305,35.756 5.442,34.996 l 35.48,0 z m -40.783,-10 C 0.057,24.34 0,23.676 0,22.997 l 43.284,0 c 0.229,0.646 0.417,1.31 0.534,1.999 l -43.679,0 z m 41.676,-4.883 c 0.196,0.281 0.354,0.588 0.527,0.884 l -42.203,0 C 0.224,20.315 0.357,19.65 0.525,18.998 l 42.19,0 c -0.281,0.386 -0.576,0.764 -0.9,1.115 z m -3.221,-3.115 -37.42,0 c 0.281,-0.693 0.613,-1.359 0.984,-2 l 27.675,0 c 0.04,0.07 0.091,0.134 0.13,0.205 0.664,-0.114 1.337,-0.205 2.033,-0.205 2.443,0 4.703,0.745 6.598,2 z m -33.153,-6 21.111,0 c 0.689,0.607 1.314,1.283 1.891,2 l -24.923,0 c 0.581,-0.723 1.226,-1.388 1.921,-2 z"
     id="path21"
     inkscape:connector-curvature="0"
     style="clip-rule:evenodd;fill-rule:evenodd" /></svg>