<?xml version="1.0" encoding="UTF-8" standalone="no"?>
<!-- Generator: Adobe Illustrator 15.1.0, SVG Export Plug-In . SVG Version: 6.00 Build 0)  -->

<svg
   xmlns:dc="http://purl.org/dc/elements/1.1/"
   xmlns:cc="http://creativecommons.org/ns#"
   xmlns:rdf="http://www.w3.org/1999/02/22-rdf-syntax-ns#"
   xmlns:svg="http://www.w3.org/2000/svg"
   xmlns="http://www.w3.org/2000/svg"
   xmlns:sodipodi="http://sodipodi.sourceforge.net/DTD/sodipodi-0.dtd"
   xmlns:inkscape="http://www.inkscape.org/namespaces/inkscape"
   version="1.1"
   id="Layer_1"
   x="0px"
   y="0px"
   width="53.993999"
   height="55.993"
   viewBox="0 0 53.993999 55.993"
   enable-background="new 0 0 100 100"
   xml:space="preserve"
   inkscape:version="0.91 r"
   sodipodi:docname="Cloud-Fog-Sun.svg"><metadata
     id="metadata36"><rdf:RDF><cc:Work
         rdf:about=""><dc:format>image/svg+xml</dc:format><dc:type
           rdf:resource="http://purl.org/dc/dcmitype/StillImage" /><dc:title></dc:title></cc:Work></rdf:RDF></metadata><defs
     id="defs34" /><sodipodi:namedview
     pagecolor="#ffffff"
     bordercolor="#666666"
     borderopacity="1"
     objecttolerance="10"
     gridtolerance="10"
     guidetolerance="10"
     inkscape:pageopacity="0"
     inkscape:pageshadow="2"
     inkscape:window-width="640"
     inkscape:window-height="480"
     id="namedview32"
     showgrid="false"
     fit-margin-top="0"
     fit-margin-left="0"
     fit-margin-right="0"
     fit-margin-bottom="0"
     inkscape:zoom="2.36"
     inkscape:cx="21.998"
     inkscape:cy="23.639"
     inkscape:window-x="0"
     inkscape:window-y="24"
     inkscape:window-maximized="0"
     inkscape:current-layer="Layer_1" /><path
     d="m 51.994,25.996 -3.999,0 c -1.104,0 -2,-0.895 -2,-2 0,-1.104 0.896,-2 2,-2 l 3.999,0 c 1.104,0 2,0.896 2,2 0,1.106 -0.895,2 -2,2 z M 44.138,12.684 c -0.781,0.781 -2.047,0.781 -2.828,0 -0.781,-0.781 -0.781,-2.047 0,-2.828 l 2.828,-2.828 c 0.781,-0.781 2.047,-0.781 2.828,0 0.78,0.781 0.78,2.047 0,2.828 l -2.828,2.828 z m -2.948,15.607 0,0 c 0.912,1.088 1.63,2.34 2.113,3.705 l -4.387,0 c -1.384,-2.389 -3.961,-4 -6.92,-4 -1.601,0 -3.083,0.48 -4.334,1.291 -1.231,-5.316 -5.973,-9.291 -11.664,-9.291 -6.627,0 -11.999,5.373 -11.999,12 L 0,31.996 C 0,23.16 7.162,15.997 15.998,15.997 c 1.572,0 3.089,0.232 4.523,0.655 2.195,-2.828 5.618,-4.654 9.475,-4.654 6.627,0 11.999,5.371 11.999,11.998 0.001,1.516 -0.292,2.959 -0.805,4.295 z M 29.997,15.998 c -2.212,0 -4.215,0.898 -5.662,2.351 2.34,1.435 4.285,3.453 5.629,5.853 0.664,-0.113 1.337,-0.205 2.033,-0.205 2.125,0 4.118,0.559 5.85,1.527 l 0,0 c 0.096,-0.494 0.149,-1.004 0.149,-1.527 0,-4.418 -3.581,-7.999 -7.999,-7.999 z m 0,-7.999 c -1.104,0 -2,-0.895 -2,-2 l 0,-3.999 c 0,-1.104 0.896,-2 2,-2 1.104,0 2,0.896 2,2 l 0,3.999 c 0,1.105 -0.895,2 -2,2 z M 15.856,12.684 13.029,9.856 c -0.781,-0.781 -0.781,-2.047 0,-2.828 0.78,-0.781 2.047,-0.781 2.827,0 l 2.828,2.828 c 0.781,0.781 0.781,2.047 0,2.828 -0.78,0.781 -2.046,0.781 -2.828,0 z m -13.855,23.311 39.995,0 c 1.104,0 1.999,0.896 1.999,2 0,1.105 -0.896,2 -1.999,2 l -39.995,0 c -1.104,0 -2,-0.895 -2,-2 0,-1.104 0.895,-2 2,-2 z m 0,8 39.995,0 c 1.104,0 1.999,0.895 1.999,2 0,1.104 -0.896,2 -1.999,2 l -39.995,0 c -1.104,0 -2,-0.896 -2,-2 0,-1.106 0.895,-2 2,-2 z m 0,7.998 39.995,0 c 1.104,0 1.999,0.896 1.999,2 0,1.105 -0.896,2 -1.999,2 l -39.995,0 c -1.104,0 -2,-0.895 -2,-2 0,-1.104 0.895,-2 2,-2 z"
     id="path30"
     inkscape:connector-curvature="0"
     style="clip-rule:evenodd;fill-rule:evenodd" /></svg>