<?xml version="1.0" encoding="UTF-8" standalone="no"?>
<!-- Generator: Adobe Illustrator 15.1.0, SVG Export Plug-In . SVG Version: 6.00 Build 0)  -->

<svg
   xmlns:dc="http://purl.org/dc/elements/1.1/"
   xmlns:cc="http://creativecommons.org/ns#"
   xmlns:rdf="http://www.w3.org/1999/02/22-rdf-syntax-ns#"
   xmlns:svg="http://www.w3.org/2000/svg"
   xmlns="http://www.w3.org/2000/svg"
   xmlns:sodipodi="http://sodipodi.sourceforge.net/DTD/sodipodi-0.dtd"
   xmlns:inkscape="http://www.inkscape.org/namespaces/inkscape"
   version="1.1"
   id="Layer_1"
   x="0px"
   y="0px"
   width="53.993"
   height="52.991749"
   viewBox="0 0 53.993 52.991749"
   enable-background="new 0 0 100 100"
   xml:space="preserve"
   inkscape:version="0.91 r"
   sodipodi:docname="Cloud-Rain-Moon-Alt.svg"><metadata
     id="metadata175"><rdf:RDF><cc:Work
         rdf:about=""><dc:format>image/svg+xml</dc:format><dc:type
           rdf:resource="http://purl.org/dc/dcmitype/StillImage" /><dc:title></dc:title></cc:Work></rdf:RDF></metadata><defs
     id="defs173" /><sodipodi:namedview
     pagecolor="#ffffff"
     bordercolor="#666666"
     borderopacity="1"
     objecttolerance="10"
     gridtolerance="10"
     guidetolerance="10"
     inkscape:pageopacity="0"
     inkscape:pageshadow="2"
     inkscape:window-width="640"
     inkscape:window-height="480"
     id="namedview171"
     showgrid="false"
     fit-margin-top="0"
     fit-margin-left="0"
     fit-margin-right="0"
     fit-margin-bottom="0"
     inkscape:zoom="2.36"
     inkscape:cx="21.997"
     inkscape:cy="20.63775"
     inkscape:window-x="1207"
     inkscape:window-y="157"
     inkscape:window-maximized="0"
     inkscape:current-layer="Layer_1" /><path
     d="m 53.993,23.996 0,0 0,0 0,0 z m -9.999,11.999 c 0,6.627 -5.372,11.998 -11.998,11.998 -0.266,0 -0.614,0 -1,0 0,-1.371 -0.319,-2.742 -0.943,-3.998 0.777,0 1.45,0 1.943,0 4.417,0 7.999,-3.582 7.999,-8 0,-4.417 -3.582,-7.999 -7.999,-7.999 -1.601,0 -3.084,0.48 -4.334,1.291 -1.231,-5.317 -5.973,-9.29 -11.664,-9.29 -6.627,0 -11.999,5.372 -11.999,11.998 0,1.406 0.254,2.748 0.697,4 l -0.004,0 c 1.437,4.053 4.987,7.104 9.331,7.824 -0.638,1.215 -0.969,2.547 -1.012,3.887 C 6.914,46.554 2.047,41.946 0.513,35.995 l 0.011,0 C 0.194,34.716 0,33.38 0,31.995 0,23.16 7.162,15.998 15.998,15.998 c 2.002,0 3.914,0.375 5.679,1.047 1.636,-4.682 6.079,-8.047 11.319,-8.047 0.755,0 1.49,0.078 2.207,0.212 -0.132,0.575 -0.208,1.173 -0.208,1.788 0,4.418 3.582,7.999 7.999,7.999 0.616,0 1.213,-0.076 1.788,-0.208 0.134,0.717 0.212,1.453 0.212,2.207 0,3.135 -1.212,5.979 -3.18,8.116 1.37,1.95 2.18,4.32 2.18,6.883 z M 31.207,13.205 c -2.899,0.664 -5.174,2.91 -5.924,5.775 l 0,0 c 1.917,1.372 3.522,3.152 4.68,5.221 0.664,-0.113 1.336,-0.205 2.033,-0.205 2.617,0 5.032,0.848 7.005,2.271 0.858,-0.98 1.485,-2.168 1.786,-3.482 -4.854,-0.904 -8.676,-4.724 -9.58,-9.58 z M 29.996,0 l 0,0 0,0 0,0 z m -7.999,40.924 3.535,3.535 c 1.952,1.951 1.952,5.117 0,7.068 -1.952,1.953 -5.118,1.953 -7.07,0 -1.952,-1.951 -1.952,-5.117 0,-7.068 l 3.535,-3.535 z"
     id="path169"
     inkscape:connector-curvature="0"
     style="clip-rule:evenodd;fill-rule:evenodd" /></svg>