<?xml version="1.0" encoding="UTF-8" standalone="no"?>
<!-- Generator: Adobe Illustrator 15.1.0, SVG Export Plug-In . SVG Version: 6.00 Build 0)  -->

<svg
   xmlns:dc="http://purl.org/dc/elements/1.1/"
   xmlns:cc="http://creativecommons.org/ns#"
   xmlns:rdf="http://www.w3.org/1999/02/22-rdf-syntax-ns#"
   xmlns:svg="http://www.w3.org/2000/svg"
   xmlns="http://www.w3.org/2000/svg"
   xmlns:sodipodi="http://sodipodi.sourceforge.net/DTD/sodipodi-0.dtd"
   xmlns:inkscape="http://www.inkscape.org/namespaces/inkscape"
   version="1.1"
   id="Layer_1"
   x="0px"
   y="0px"
   width="53.992001"
   height="59.993"
   viewBox="0 0 53.992001 59.993"
   enable-background="new 0 0 100 100"
   xml:space="preserve"
   inkscape:version="0.91 r"
   sodipodi:docname="Cloud-Lightning-Sun.svg"><metadata
     id="metadata126"><rdf:RDF><cc:Work
         rdf:about=""><dc:format>image/svg+xml</dc:format><dc:type
           rdf:resource="http://purl.org/dc/dcmitype/StillImage" /><dc:title></dc:title></cc:Work></rdf:RDF></metadata><defs
     id="defs124" /><sodipodi:namedview
     pagecolor="#ffffff"
     bordercolor="#666666"
     borderopacity="1"
     objecttolerance="10"
     gridtolerance="10"
     guidetolerance="10"
     inkscape:pageopacity="0"
     inkscape:pageshadow="2"
     inkscape:window-width="640"
     inkscape:window-height="480"
     id="namedview122"
     showgrid="false"
     fit-margin-top="0"
     fit-margin-left="0"
     fit-margin-right="0"
     fit-margin-bottom="0"
     inkscape:zoom="2.36"
     inkscape:cx="21.996"
     inkscape:cy="27.639"
     inkscape:window-x="819"
     inkscape:window-y="130"
     inkscape:window-maximized="0"
     inkscape:current-layer="Layer_1" /><path
     d="m 51.992,25.996 -3.999,0 c -1.104,0 -2,-0.895 -2,-2 0,-1.104 0.896,-2 2,-2 l 3.999,0 c 1.104,0 2,0.896 2,2 0,1.106 -0.895,2 -2,2 z M 44.136,12.684 c -0.781,0.781 -2.047,0.781 -2.828,0 -0.781,-0.781 -0.781,-2.047 0,-2.828 l 2.828,-2.828 c 0.781,-0.781 2.047,-0.781 2.828,0 0.78,0.781 0.78,2.047 0,2.828 l -2.828,2.828 z m -2.948,15.607 0,0 c 1.342,1.6 2.271,3.555 2.633,5.704 l -0.008,0 c 0.109,0.652 0.18,1.318 0.18,2 0,6.627 -5.372,12 -11.998,12 -0.28,0 -0.649,0 -1.062,0 l 3.584,-4.412 c 3.181,-1.057 5.478,-4.053 5.478,-7.588 0,-0.691 -0.098,-1.359 -0.263,-2 l 0,0 c -0.889,-3.448 -4.011,-5.999 -7.736,-5.999 -1.601,0 -3.083,0.48 -4.334,1.291 -1.231,-5.316 -5.973,-9.291 -11.664,-9.291 -6.627,0 -11.999,5.373 -11.999,12 0,0.682 0.07,1.348 0.181,1.999 l -0.014,0 c 0.764,4.549 4.088,8.223 8.438,9.506 l -1.35,3.777 C 5.351,45.448 0.924,40.288 0.138,33.995 l 0,0 C 0.056,33.338 0,32.674 0,31.996 0,23.16 7.162,15.997 15.998,15.997 c 1.572,0 3.089,0.232 4.523,0.655 2.195,-2.828 5.618,-4.654 9.475,-4.654 6.627,0 11.999,5.371 11.999,11.998 -10e-4,1.516 -0.294,2.959 -0.807,4.295 z M 29.995,15.998 c -2.212,0 -4.215,0.898 -5.662,2.351 2.34,1.435 4.285,3.451 5.629,5.853 0.664,-0.113 1.337,-0.205 2.033,-0.205 2.125,0 4.118,0.559 5.85,1.527 l 0,0 c 0.096,-0.494 0.149,-1.004 0.149,-1.527 0,-4.418 -3.581,-7.999 -7.999,-7.999 z m 0,-7.999 c -1.104,0 -2,-0.896 -2,-2 l 0,-3.999 c 0,-1.104 0.896,-2 2,-2 1.104,0 2,0.896 2,2 l 0,3.999 c 0,1.104 -0.895,2 -2,2 z M 15.854,12.684 13.027,9.856 c -0.781,-0.781 -0.781,-2.047 0,-2.828 0.78,-0.781 2.047,-0.781 2.827,0 l 2.828,2.828 c 0.781,0.781 0.781,2.047 0,2.828 -0.78,0.781 -2.046,0.781 -2.828,0 z m 4.142,21.311 9.999,0 -5.999,10 6.999,0 -12.998,15.998 3.6,-11.998 -6.6,0 4.999,-14 z"
     id="path120"
     inkscape:connector-curvature="0"
     style="clip-rule:evenodd;fill-rule:evenodd" /></svg>