<?xml version="1.0" encoding="UTF-8" standalone="no"?>
<!-- Generator: Adobe Illustrator 15.1.0, SVG Export Plug-In . SVG Version: 6.00 Build 0)  -->

<svg
   xmlns:dc="http://purl.org/dc/elements/1.1/"
   xmlns:cc="http://creativecommons.org/ns#"
   xmlns:rdf="http://www.w3.org/1999/02/22-rdf-syntax-ns#"
   xmlns:svg="http://www.w3.org/2000/svg"
   xmlns="http://www.w3.org/2000/svg"
   xmlns:sodipodi="http://sodipodi.sourceforge.net/DTD/sodipodi-0.dtd"
   xmlns:inkscape="http://www.inkscape.org/namespaces/inkscape"
   version="1.1"
   id="Layer_1"
   x="0px"
   y="0px"
   width="27.996"
   height="27.997999"
   viewBox="0 0 27.996 27.997999"
   enable-background="new 0 0 100 100"
   xml:space="preserve"
   inkscape:version="0.91 r"
   sodipodi:docname="Compass-South.svg"><metadata
     id="metadata48"><rdf:RDF><cc:Work
         rdf:about=""><dc:format>image/svg+xml</dc:format><dc:type
           rdf:resource="http://purl.org/dc/dcmitype/StillImage" /><dc:title></dc:title></cc:Work></rdf:RDF></metadata><defs
     id="defs46" /><sodipodi:namedview
     pagecolor="#ffffff"
     bordercolor="#666666"
     borderopacity="1"
     objecttolerance="10"
     gridtolerance="10"
     guidetolerance="10"
     inkscape:pageopacity="0"
     inkscape:pageshadow="2"
     inkscape:window-width="640"
     inkscape:window-height="480"
     id="namedview44"
     showgrid="false"
     fit-margin-top="0"
     fit-margin-left="0"
     fit-margin-right="0"
     fit-margin-bottom="0"
     inkscape:zoom="2.36"
     inkscape:cx="13.998"
     inkscape:cy="13.868"
     inkscape:window-x="0"
     inkscape:window-y="24"
     inkscape:window-maximized="0"
     inkscape:current-layer="Layer_1" /><g
     id="g38"
     transform="translate(-36.002,-35.87)"><g
       id="g40"><path
         d="m 50,35.87 c -7.73,0 -13.998,6.268 -13.998,13.998 0,7.732 6.268,14 13.998,14 7.731,0 13.998,-6.268 13.998,-14 C 63.998,42.137 57.731,35.87 50,35.87 Z m 0,23.997 c -5.521,0 -9.998,-4.477 -9.998,-10 0,-5.521 4.477,-9.998 9.998,-9.998 5.522,0 9.999,4.477 9.999,9.998 0,5.524 -4.477,10 -9.999,10 z m 0,-13.998 c -2.208,0 -3.999,1.79 -3.999,3.999 0,2.208 3.999,8 3.999,8 0,0 4,-5.791 4,-8 0,-2.209 -1.791,-3.999 -4,-3.999 z m 0,4.999 c -0.552,0 -1,-0.447 -1,-1 0,-0.552 0.448,-1 1,-1 0.553,0 1,0.448 1,1 0,0.552 -0.447,1 -1,1 z"
         id="path42"
         inkscape:connector-curvature="0"
         style="clip-rule:evenodd;fill-rule:evenodd" /></g></g></svg>