<?xml version="1.0" encoding="UTF-8" standalone="no"?>
<!-- Generator: Adobe Illustrator 15.1.0, SVG Export Plug-In . SVG Version: 6.00 Build 0)  -->

<svg
   xmlns:dc="http://purl.org/dc/elements/1.1/"
   xmlns:cc="http://creativecommons.org/ns#"
   xmlns:rdf="http://www.w3.org/1999/02/22-rdf-syntax-ns#"
   xmlns:svg="http://www.w3.org/2000/svg"
   xmlns="http://www.w3.org/2000/svg"
   xmlns:sodipodi="http://sodipodi.sourceforge.net/DTD/sodipodi-0.dtd"
   xmlns:inkscape="http://www.inkscape.org/namespaces/inkscape"
   version="1.1"
   id="Layer_1"
   x="0px"
   y="0px"
   width="27.996"
   height="27.997"
   viewBox="0 0 27.996 27.997"
   enable-background="new 0 0 100 100"
   xml:space="preserve"
   inkscape:version="0.91 r"
   sodipodi:docname="Compass.svg"><metadata
     id="metadata9"><rdf:RDF><cc:Work
         rdf:about=""><dc:format>image/svg+xml</dc:format><dc:type
           rdf:resource="http://purl.org/dc/dcmitype/StillImage" /><dc:title></dc:title></cc:Work></rdf:RDF></metadata><defs
     id="defs7" /><sodipodi:namedview
     pagecolor="#ffffff"
     bordercolor="#666666"
     borderopacity="1"
     objecttolerance="10"
     gridtolerance="10"
     guidetolerance="10"
     inkscape:pageopacity="0"
     inkscape:pageshadow="2"
     inkscape:window-width="640"
     inkscape:window-height="480"
     id="namedview5"
     showgrid="false"
     fit-margin-top="0"
     fit-margin-left="0"
     fit-margin-right="0"
     fit-margin-bottom="0"
     inkscape:zoom="2.36"
     inkscape:cx="13.998"
     inkscape:cy="13.999"
     inkscape:window-x="0"
     inkscape:window-y="24"
     inkscape:window-maximized="0"
     inkscape:current-layer="Layer_1" /><path
     d="M 13.998,27.997 C 6.266,27.997 0,21.729 0,13.998 0,6.268 6.266,0 13.998,0 c 7.73,0 13.998,6.268 13.998,13.998 0,7.731 -6.268,13.999 -13.998,13.999 z M 13.998,4 c -5.523,0 -10,4.477 -10,9.998 0,5.522 4.477,9.999 10,9.999 5.521,0 9.998,-4.477 9.998,-9.999 C 23.996,8.477 19.519,4 13.998,4 Z m 3.119,12.469 c -0.096,0.139 -0.193,0.259 -0.291,0.357 -0.1,0.099 -0.221,0.196 -0.359,0.293 -0.428,0.34 -0.906,0.579 -1.41,0.718 -2.6,1.062 -6.715,1.817 -6.715,1.817 0,0 0.754,-4.114 1.816,-6.715 0.139,-0.505 0.379,-0.982 0.719,-1.411 0.096,-0.139 0.193,-0.26 0.293,-0.358 0.098,-0.099 0.219,-0.196 0.357,-0.292 0.43,-0.34 0.906,-0.58 1.412,-0.719 2.6,-1.062 6.715,-1.817 6.715,-1.817 0,0 -0.756,4.115 -1.818,6.716 -0.139,0.504 -0.379,0.981 -0.719,1.411 z m -2.412,-3.178 c -0.391,-0.391 -1.023,-0.391 -1.414,0 -0.391,0.391 -0.391,1.023 0,1.414 0.391,0.391 1.023,0.391 1.414,0 0.391,-0.391 0.391,-1.023 0,-1.414 z"
     id="path3"
     inkscape:connector-curvature="0"
     style="clip-rule:evenodd;fill-rule:evenodd" /></svg>