<?xml version="1.0" encoding="UTF-8" standalone="no"?>
<!-- Generator: Adobe Illustrator 15.1.0, SVG Export Plug-In . SVG Version: 6.00 Build 0)  -->

<svg
   xmlns:dc="http://purl.org/dc/elements/1.1/"
   xmlns:cc="http://creativecommons.org/ns#"
   xmlns:rdf="http://www.w3.org/1999/02/22-rdf-syntax-ns#"
   xmlns:svg="http://www.w3.org/2000/svg"
   xmlns="http://www.w3.org/2000/svg"
   xmlns:sodipodi="http://sodipodi.sourceforge.net/DTD/sodipodi-0.dtd"
   xmlns:inkscape="http://www.inkscape.org/namespaces/inkscape"
   version="1.1"
   id="Layer_1"
   x="0px"
   y="0px"
   width="33.994999"
   height="23.997"
   viewBox="0 0 33.994999 23.997"
   enable-background="new 0 0 100 100"
   xml:space="preserve"
   inkscape:version="0.91 r"
   sodipodi:docname="Degrees-Celcius.svg"><metadata
     id="metadata70"><rdf:RDF><cc:Work
         rdf:about=""><dc:format>image/svg+xml</dc:format><dc:type
           rdf:resource="http://purl.org/dc/dcmitype/StillImage" /><dc:title></dc:title></cc:Work></rdf:RDF></metadata><defs
     id="defs68" /><sodipodi:namedview
     pagecolor="#ffffff"
     bordercolor="#666666"
     borderopacity="1"
     objecttolerance="10"
     gridtolerance="10"
     guidetolerance="10"
     inkscape:pageopacity="0"
     inkscape:pageshadow="2"
     inkscape:window-width="640"
     inkscape:window-height="480"
     id="namedview66"
     showgrid="false"
     fit-margin-top="0"
     fit-margin-left="0"
     fit-margin-right="0"
     fit-margin-bottom="0"
     inkscape:zoom="2.36"
     inkscape:cx="16.998"
     inkscape:cy="11.999"
     inkscape:window-x="0"
     inkscape:window-y="24"
     inkscape:window-maximized="0"
     inkscape:current-layer="Layer_1" /><path
     d="m 25.997,3.999 c -2.209,0 -4,1.791 -4,4 l 0,7.999 c 0,2.209 1.791,3.999 4,3.999 2.209,0 4,-1.79 4,-3.999 l 3.998,0 c 0,4.418 -3.58,7.999 -7.998,7.999 -4.418,0 -8,-3.581 -8,-7.999 l 0,-7.999 c 0,-4.418 3.582,-7.999 8,-7.999 4.418,0 7.998,3.581 7.998,7.999 l -3.998,0 c 0,-2.209 -1.791,-4 -4,-4 z M 6.998,13.998 C 3.133,13.998 0,10.864 0,6.999 0,3.134 3.133,0 6.998,0 c 3.866,0 7,3.134 7,6.999 0,3.865 -3.133,6.999 -7,6.999 z m 0,-9.999 c -1.656,0 -2.999,1.344 -2.999,3 0,1.656 1.343,3 2.999,3 1.657,0 3,-1.344 3,-3 0,-1.656 -1.342,-3 -3,-3 z"
     id="path64"
     inkscape:connector-curvature="0"
     style="clip-rule:evenodd;fill-rule:evenodd" /></svg>