<?xml version="1.0" encoding="UTF-8" standalone="no"?>
<!-- Generator: Adobe Illustrator 15.1.0, SVG Export Plug-In . SVG Version: 6.00 Build 0)  -->

<svg
   xmlns:dc="http://purl.org/dc/elements/1.1/"
   xmlns:cc="http://creativecommons.org/ns#"
   xmlns:rdf="http://www.w3.org/1999/02/22-rdf-syntax-ns#"
   xmlns:svg="http://www.w3.org/2000/svg"
   xmlns="http://www.w3.org/2000/svg"
   xmlns:sodipodi="http://sodipodi.sourceforge.net/DTD/sodipodi-0.dtd"
   xmlns:inkscape="http://www.inkscape.org/namespaces/inkscape"
   version="1.1"
   id="Layer_1"
   x="0px"
   y="0px"
   width="23.997999"
   height="23.997"
   viewBox="0 0 23.997999 23.997"
   enable-background="new 0 0 100 100"
   xml:space="preserve"
   inkscape:version="0.91 r"
   sodipodi:docname="Moon-Waning-Crescent.svg"><metadata
     id="metadata129"><rdf:RDF><cc:Work
         rdf:about=""><dc:format>image/svg+xml</dc:format><dc:type
           rdf:resource="http://purl.org/dc/dcmitype/StillImage" /><dc:title></dc:title></cc:Work></rdf:RDF></metadata><defs
     id="defs127" /><sodipodi:namedview
     pagecolor="#ffffff"
     bordercolor="#666666"
     borderopacity="1"
     objecttolerance="10"
     gridtolerance="10"
     guidetolerance="10"
     inkscape:pageopacity="0"
     inkscape:pageshadow="2"
     inkscape:window-width="640"
     inkscape:window-height="480"
     id="namedview125"
     showgrid="false"
     fit-margin-top="0"
     fit-margin-left="0"
     fit-margin-right="0"
     fit-margin-bottom="0"
     inkscape:zoom="2.36"
     inkscape:cx="11.999"
     inkscape:cy="11.998"
     inkscape:window-x="0"
     inkscape:window-y="24"
     inkscape:window-maximized="0"
     inkscape:current-layer="Layer_1" /><path
     d="M 11.999,23.997 C 5.373,23.997 0,18.626 0,11.999 0,5.372 5.373,0 11.999,0 c 6.627,0 11.999,5.372 11.999,11.999 0,6.627 -5.372,11.998 -11.999,11.998 z m 2,-19.734 C 13.358,4.097 12.691,4.001 11.999,4.001 7.582,4.001 4,7.581 4,11.999 c 0,4.418 3.582,7.998 7.999,7.998 0.692,0 1.359,-0.096 2,-0.262 C 10.551,18.846 8,15.725 8,11.999 8,8.273 10.551,5.151 13.999,4.263 Z"
     id="path123"
     inkscape:connector-curvature="0"
     style="clip-rule:evenodd;fill-rule:evenodd" /></svg>