<?xml version="1.0" encoding="UTF-8" standalone="no"?>
<!-- Generator: Adobe Illustrator 15.1.0, SVG Export Plug-In . SVG Version: 6.00 Build 0)  -->

<svg
   xmlns:dc="http://purl.org/dc/elements/1.1/"
   xmlns:cc="http://creativecommons.org/ns#"
   xmlns:rdf="http://www.w3.org/1999/02/22-rdf-syntax-ns#"
   xmlns:svg="http://www.w3.org/2000/svg"
   xmlns="http://www.w3.org/2000/svg"
   xmlns:sodipodi="http://sodipodi.sourceforge.net/DTD/sodipodi-0.dtd"
   xmlns:inkscape="http://www.inkscape.org/namespaces/inkscape"
   version="1.1"
   id="Layer_1"
   x="0px"
   y="0px"
   width="27.997"
   height="9.9980001"
   viewBox="0 0 27.997 9.9980001"
   enable-background="new 0 0 100 100"
   xml:space="preserve"
   inkscape:version="0.91 r"
   sodipodi:docname="Shades.svg"><metadata
     id="metadata165"><rdf:RDF><cc:Work
         rdf:about=""><dc:format>image/svg+xml</dc:format><dc:type
           rdf:resource="http://purl.org/dc/dcmitype/StillImage" /><dc:title></dc:title></cc:Work></rdf:RDF></metadata><defs
     id="defs163" /><sodipodi:namedview
     pagecolor="#ffffff"
     bordercolor="#666666"
     borderopacity="1"
     objecttolerance="10"
     gridtolerance="10"
     guidetolerance="10"
     inkscape:pageopacity="0"
     inkscape:pageshadow="2"
     inkscape:window-width="640"
     inkscape:window-height="480"
     id="namedview161"
     showgrid="false"
     fit-margin-top="0"
     fit-margin-left="0"
     fit-margin-right="0"
     fit-margin-bottom="0"
     inkscape:zoom="2.36"
     inkscape:cx="13.998"
     inkscape:cy="4.999"
     inkscape:window-x="0"
     inkscape:window-y="24"
     inkscape:window-maximized="0"
     inkscape:current-layer="Layer_1" /><path
     d="m 26.996,4.999 -1,0 0,2 c 0,1.656 -1.343,2.999 -3,2.999 l -3.999,0 c -1.657,0 -2.999,-1.343 -2.999,-2.999 L 15.008,3.04 C 14.662,3.016 14.312,2.999 13.967,2.999 c -0.332,0 -0.66,0.019 -0.98,0.047 l -0.989,3.953 c 0,1.656 -1.343,2.999 -3,2.999 l -3.999,0 c -1.657,0 -3,-1.343 -3,-2.999 l 0,-2 -0.999,0 c -0.553,0 -1,-0.447 -1,-1 l 0,-1 C 0,2.447 0.447,2 1,2 L 2.184,2 C 2.596,0.837 3.696,0 4.999,0 l 4.999,0 c 0.945,0 1.778,0.445 2.328,1.129 C 12.851,1.053 13.402,1 13.967,1 14.542,1 15.121,1.046 15.687,1.108 16.237,0.437 17.062,0 17.998,0 l 4.999,0 c 1.305,0 2.403,0.837 2.816,2 l 1.184,0 c 0.553,0 1,0.447 1,0.999 l 0,1 c -0.001,0.553 -0.448,1 -1.001,1 z M 8.338,1.659 C 8.046,1.366 7.57,1.366 7.277,1.659 L 4.096,4.841 c -0.293,0.293 -0.293,0.768 0,1.061 0.292,0.293 0.768,0.293 1.06,0 L 8.338,2.72 c 0.293,-0.293 0.293,-0.768 0,-1.061 z m 13.999,0 c -0.293,-0.293 -0.768,-0.293 -1.061,0 l -3.182,3.182 c -0.293,0.293 -0.293,0.768 0,1.061 0.293,0.293 0.768,0.293 1.061,0 L 22.337,2.72 c 0.293,-0.293 0.293,-0.768 0,-1.061 z"
     id="path159"
     inkscape:connector-curvature="0"
     style="clip-rule:evenodd;fill-rule:evenodd" /></svg>