<?xml version="1.0" encoding="UTF-8" standalone="no"?>
<!-- Generator: Adobe Illustrator 15.1.0, SVG Export Plug-In . SVG Version: 6.00 Build 0)  -->

<svg
   xmlns:dc="http://purl.org/dc/elements/1.1/"
   xmlns:cc="http://creativecommons.org/ns#"
   xmlns:rdf="http://www.w3.org/1999/02/22-rdf-syntax-ns#"
   xmlns:svg="http://www.w3.org/2000/svg"
   xmlns="http://www.w3.org/2000/svg"
   xmlns:sodipodi="http://sodipodi.sourceforge.net/DTD/sodipodi-0.dtd"
   xmlns:inkscape="http://www.inkscape.org/namespaces/inkscape"
   version="1.1"
   id="Layer_1"
   x="0px"
   y="0px"
   width="21.31748"
   height="23.997"
   viewBox="0 0 21.31748 23.997"
   enable-background="new 0 0 100 100"
   xml:space="preserve"
   inkscape:version="0.91 r"
   sodipodi:docname="Snowflake.svg"><metadata
     id="metadata174"><rdf:RDF><cc:Work
         rdf:about=""><dc:format>image/svg+xml</dc:format><dc:type
           rdf:resource="http://purl.org/dc/dcmitype/StillImage" /><dc:title></dc:title></cc:Work></rdf:RDF></metadata><defs
     id="defs172" /><sodipodi:namedview
     pagecolor="#ffffff"
     bordercolor="#666666"
     borderopacity="1"
     objecttolerance="10"
     gridtolerance="10"
     guidetolerance="10"
     inkscape:pageopacity="0"
     inkscape:pageshadow="2"
     inkscape:window-width="640"
     inkscape:window-height="480"
     id="namedview170"
     showgrid="false"
     fit-margin-top="0"
     fit-margin-left="0"
     fit-margin-right="0"
     fit-margin-bottom="0"
     inkscape:zoom="2.36"
     inkscape:cx="10.65874"
     inkscape:cy="11.999"
     inkscape:window-x="0"
     inkscape:window-y="24"
     inkscape:window-maximized="0"
     inkscape:current-layer="Layer_1" /><path
     d="m 20.31774,8.731 -1.958,1.13 c 0.188,0.682 0.298,1.396 0.298,2.137 0,0.742 -0.109,1.456 -0.298,2.138 l 1.958,1.13 c 0.956,0.553 1.284,1.775 0.731,2.732 -0.552,0.956 -1.774,1.284 -2.731,0.731 l -1.954,-1.128 c -1.003,1.02 -2.277,1.766 -3.705,2.134 l 0,2.262 c 0,1.104 -0.896,2 -2,2 -1.1039999,0 -1.9999999,-0.896 -1.9999999,-2 l 0,-2.262 c -1.428,-0.368 -2.703,-1.114 -3.705,-2.134 l -1.954,1.128 c -0.957,0.553 -2.17999996,0.225 -2.73099996,-0.731 -0.553,-0.957 -0.225,-2.18 0.731,-2.732 l 1.95799996,-1.13 c -0.189,-0.682 -0.298,-1.396 -0.298,-2.138 0,-0.741 0.108,-1.455 0.298,-2.137 L 0.99974014,8.731 c -0.956,-0.553 -1.284,-1.775 -0.731,-2.732 0.552,-0.956 1.77399996,-1.284 2.73099996,-0.731 l 1.954,1.128 c 1.002,-1.02 2.277,-1.766 3.705,-2.134 l 0,-2.262 c 0,-1.104 0.896,-2 1.9999999,-2 1.104,0 2,0.896 2,2 l 0,2.262 c 1.428,0.368 2.702,1.114 3.705,2.134 l 1.954,-1.128 c 0.957,-0.553 2.18,-0.225 2.731,0.731 0.553,0.957 0.225,2.18 -0.731,2.732 z m -9.659,-0.732 c -2.2089999,0 -3.9999999,1.791 -3.9999999,3.999 0,2.209 1.791,4 3.9999999,4 2.209,0 3.999,-1.791 3.999,-4 0,-2.208 -1.79,-3.999 -3.999,-3.999 z"
     id="path168"
     inkscape:connector-curvature="0"
     style="clip-rule:evenodd;fill-rule:evenodd" /></svg>