<?xml version="1.0" encoding="UTF-8" standalone="no"?>
<!-- Generator: Adobe Illustrator 15.1.0, SVG Export Plug-In . SVG Version: 6.00 Build 0)  -->

<svg
   xmlns:dc="http://purl.org/dc/elements/1.1/"
   xmlns:cc="http://creativecommons.org/ns#"
   xmlns:rdf="http://www.w3.org/1999/02/22-rdf-syntax-ns#"
   xmlns:svg="http://www.w3.org/2000/svg"
   xmlns="http://www.w3.org/2000/svg"
   xmlns:sodipodi="http://sodipodi.sourceforge.net/DTD/sodipodi-0.dtd"
   xmlns:inkscape="http://www.inkscape.org/namespaces/inkscape"
   version="1.1"
   id="Layer_1"
   x="0px"
   y="0px"
   width="35.108002"
   height="27.995001"
   viewBox="0 0 35.108002 27.995001"
   enable-background="new 0 0 100 100"
   xml:space="preserve"
   inkscape:version="0.91 r"
   sodipodi:docname="Sun-Lower.svg"><metadata
     id="metadata201"><rdf:RDF><cc:Work
         rdf:about=""><dc:format>image/svg+xml</dc:format><dc:type
           rdf:resource="http://purl.org/dc/dcmitype/StillImage" /><dc:title></dc:title></cc:Work></rdf:RDF></metadata><defs
     id="defs199" /><sodipodi:namedview
     pagecolor="#ffffff"
     bordercolor="#666666"
     borderopacity="1"
     objecttolerance="10"
     gridtolerance="10"
     guidetolerance="10"
     inkscape:pageopacity="0"
     inkscape:pageshadow="2"
     inkscape:window-width="640"
     inkscape:window-height="480"
     id="namedview197"
     showgrid="false"
     fit-margin-top="0"
     fit-margin-left="0"
     fit-margin-right="0"
     fit-margin-bottom="0"
     inkscape:zoom="2.36"
     inkscape:cx="17.55475"
     inkscape:cy="9.867"
     inkscape:window-x="1044"
     inkscape:window-y="201"
     inkscape:window-maximized="0"
     inkscape:current-layer="Layer_1" /><path
     d="m 31.69575,12.684 c -0.781,0.78 -2.049,0.78 -2.828,0 -0.781,-0.781 -0.781,-2.048 0,-2.828 l 2.828,-2.828 c 0.779,-0.781 2.047,-0.781 2.828,0 0.779,0.78 0.779,2.047 0,2.828 l -2.828,2.828 z m -7.221,7.313 c -1.385,-2.389 -3.961,-4 -6.92,-4 -2.959,0 -5.537,1.611 -6.92,4 l -4.381,0 c 1.648,-4.658 6.078,-8 11.301,-8 5.221,0 9.652,3.342 11.301,8 l -4.381,0 z m -6.92,-11.998 c -1.105,0 -2,-0.896 -2,-2 l 0,-4 c 0,-1.104 0.895,-1.999 2,-1.999 1.104,0 2,0.895 2,1.999 l 0,4 c 0,1.104 -0.896,2 -2,2 z m -14.141,4.685 -2.828,-2.828 c -0.781,-0.781 -0.781,-2.048 0,-2.828 0.781,-0.781 2.047,-0.781 2.828,0 l 2.828,2.828 c 0.781,0.78 0.781,2.047 0,2.828 -0.781,0.78 -2.046,0.78 -2.828,0 z m 4.141,11.311 19.998,0 c 1.105,0 2,0.896 2,2 0,1.105 -0.895,2 -2,2 l -19.998,0 c -1.104,0 -2,-0.895 -2,-2 0,-1.103 0.896,-2 2,-2 z"
     id="path195"
     inkscape:connector-curvature="0"
     style="clip-rule:evenodd;fill-rule:evenodd" /></svg>