<?xml version="1.0" encoding="UTF-8" standalone="no"?>
<!-- Generator: Adobe Illustrator 15.1.0, SVG Export Plug-In . SVG Version: 6.00 Build 0)  -->

<svg
   xmlns:dc="http://purl.org/dc/elements/1.1/"
   xmlns:cc="http://creativecommons.org/ns#"
   xmlns:rdf="http://www.w3.org/1999/02/22-rdf-syntax-ns#"
   xmlns:svg="http://www.w3.org/2000/svg"
   xmlns="http://www.w3.org/2000/svg"
   xmlns:sodipodi="http://sodipodi.sourceforge.net/DTD/sodipodi-0.dtd"
   xmlns:inkscape="http://www.inkscape.org/namespaces/inkscape"
   version="1.1"
   id="Layer_1"
   x="0px"
   y="0px"
   width="47.993999"
   height="35.995998"
   viewBox="0 0 47.993999 35.995998"
   enable-background="new 0 0 100 100"
   xml:space="preserve"
   inkscape:version="0.91 r"
   sodipodi:docname="Sun-Low.svg"><metadata
     id="metadata192"><rdf:RDF><cc:Work
         rdf:about=""><dc:format>image/svg+xml</dc:format><dc:type
           rdf:resource="http://purl.org/dc/dcmitype/StillImage" /><dc:title></dc:title></cc:Work></rdf:RDF></metadata><defs
     id="defs190" /><sodipodi:namedview
     pagecolor="#ffffff"
     bordercolor="#666666"
     borderopacity="1"
     objecttolerance="10"
     gridtolerance="10"
     guidetolerance="10"
     inkscape:pageopacity="0"
     inkscape:pageshadow="2"
     inkscape:window-width="640"
     inkscape:window-height="480"
     id="namedview188"
     showgrid="false"
     fit-margin-top="0"
     fit-margin-left="0"
     fit-margin-right="0"
     fit-margin-bottom="0"
     inkscape:zoom="2.36"
     inkscape:cx="23.997"
     inkscape:cy="17.998"
     inkscape:window-x="1996"
     inkscape:window-y="804"
     inkscape:window-maximized="0"
     inkscape:current-layer="Layer_1" /><path
     d="m 45.994,25.998 -3.999,0 c -1.104,0 -2,-0.896 -2,-2 0,-1.105 0.896,-2 2,-2 l 3.999,0 c 1.105,0 2,0.895 2,2 0,1.104 -0.894,2 -2,2 z M 38.138,12.685 c -0.781,0.781 -2.048,0.781 -2.828,0 -0.78,-0.781 -0.78,-2.047 0,-2.828 l 2.828,-2.828 c 0.78,-0.78 2.047,-0.78 2.828,0 0.78,0.781 0.78,2.047 0,2.828 l -2.828,2.828 z m -2.839,15.311 -4.381,0 c 0.682,-1.176 1.078,-2.539 1.078,-3.998 0,-4.418 -3.581,-8 -7.999,-8 -4.417,0 -7.999,3.582 -7.999,8 0,1.459 0.396,2.822 1.079,3.998 l -4.381,0 c -0.444,-1.252 -0.698,-2.594 -0.698,-3.998 0,-6.627 5.373,-11.999 11.999,-11.999 6.627,0 11.999,5.371 11.999,11.999 0,1.404 -0.254,2.746 -0.697,3.998 z M 23.997,7.999 c -1.104,0 -1.999,-0.896 -1.999,-2 l 0,-3.999 c 0,-1.104 0.895,-2 1.999,-2 1.104,0 2,0.896 2,2 l 0,3.999 c 0,1.105 -0.896,2 -2,2 z M 9.857,12.685 7.029,9.857 c -0.781,-0.781 -0.781,-2.047 0,-2.828 0.78,-0.78 2.047,-0.78 2.828,0 l 2.828,2.828 c 0.78,0.781 0.78,2.047 0,2.828 -0.781,0.781 -2.047,0.781 -2.828,0 z M 7.999,23.998 c 0,1.104 -0.896,2 -1.999,2 l -4,0 c -1.104,0 -2,-0.896 -2,-2 0,-1.105 0.896,-2 2,-2 l 4,0 c 1.103,0 1.999,0.895 1.999,2 z m 5.999,7.998 19.998,0 c 1.104,0 2,0.896 2,2 0,1.105 -0.896,2 -2,2 l -19.998,0 c -1.104,0 -2,-0.895 -2,-2 0,-1.103 0.896,-2 2,-2 z"
     id="path186"
     inkscape:connector-curvature="0"
     style="clip-rule:evenodd;fill-rule:evenodd" /></svg>