<?xml version="1.0" encoding="UTF-8" standalone="no"?>
<!-- Generator: Adobe Illustrator 15.1.0, SVG Export Plug-In . SVG Version: 6.00 Build 0)  -->

<svg
   xmlns:dc="http://purl.org/dc/elements/1.1/"
   xmlns:cc="http://creativecommons.org/ns#"
   xmlns:rdf="http://www.w3.org/1999/02/22-rdf-syntax-ns#"
   xmlns:svg="http://www.w3.org/2000/svg"
   xmlns="http://www.w3.org/2000/svg"
   xmlns:sodipodi="http://sodipodi.sourceforge.net/DTD/sodipodi-0.dtd"
   xmlns:inkscape="http://www.inkscape.org/namespaces/inkscape"
   version="1.1"
   id="Layer_1"
   x="0px"
   y="0px"
   width="15.998"
   height="35.995998"
   viewBox="0 0 15.998 35.995998"
   enable-background="new 0 0 100 100"
   xml:space="preserve"
   inkscape:version="0.91 r"
   sodipodi:docname="Thermometer-100.svg"><metadata
     id="metadata268"><rdf:RDF><cc:Work
         rdf:about=""><dc:format>image/svg+xml</dc:format><dc:type
           rdf:resource="http://purl.org/dc/dcmitype/StillImage" /><dc:title></dc:title></cc:Work></rdf:RDF></metadata><defs
     id="defs266" /><sodipodi:namedview
     pagecolor="#ffffff"
     bordercolor="#666666"
     borderopacity="1"
     objecttolerance="10"
     gridtolerance="10"
     guidetolerance="10"
     inkscape:pageopacity="0"
     inkscape:pageshadow="2"
     inkscape:window-width="640"
     inkscape:window-height="480"
     id="namedview264"
     showgrid="false"
     fit-margin-top="0"
     fit-margin-left="0"
     fit-margin-right="0"
     fit-margin-bottom="0"
     inkscape:zoom="2.36"
     inkscape:cx="8"
     inkscape:cy="17.867"
     inkscape:window-x="0"
     inkscape:window-y="24"
     inkscape:window-maximized="0"
     inkscape:current-layer="Layer_1" /><path
     d="m 8,35.996 c -4.418,0 -8,-3.582 -8,-8 0,-2.025 0.76,-3.869 2,-5.279 L 2,6 C 2,2.687 4.686,0 8,0 c 3.312,0 6,2.687 6,6 l 0,16.717 c 1.24,1.41 1.998,3.254 1.998,5.279 0,4.418 -3.58,8 -7.998,8 z M 10,24.551 10,20.26 10,9.999 10,6 C 10,4.896 9.104,4 8,4 6.895,4 6,4.896 6,6 l 0,3.999 0,10.261 0,4.291 c -1.189,0.693 -2,1.969 -2,3.445 0,2.209 1.791,4 4,4 2.209,0 4,-1.791 4,-4 0,-1.476 -0.811,-2.752 -2,-3.445 z m -2,6.445 c -1.656,0 -3,-1.344 -3,-3 0,-1.305 0.838,-2.402 2,-2.816 L 7,9.936 7,5.999 c 0,-0.553 0.447,-1 1,-1 0.553,0 1,0.447 1,1 L 9,9.936 9,25.18 c 1.162,0.414 2,1.512 2,2.816 0,1.656 -1.344,3 -3,3 z"
     id="path262"
     inkscape:connector-curvature="0"
     style="clip-rule:evenodd;fill-rule:evenodd" /></svg>