<?xml version="1.0" encoding="UTF-8" standalone="no"?>
<!-- Generator: Adobe Illustrator 15.1.0, SVG Export Plug-In . SVG Version: 6.00 Build 0)  -->

<svg
   xmlns:dc="http://purl.org/dc/elements/1.1/"
   xmlns:cc="http://creativecommons.org/ns#"
   xmlns:rdf="http://www.w3.org/1999/02/22-rdf-syntax-ns#"
   xmlns:svg="http://www.w3.org/2000/svg"
   xmlns="http://www.w3.org/2000/svg"
   xmlns:sodipodi="http://sodipodi.sourceforge.net/DTD/sodipodi-0.dtd"
   xmlns:inkscape="http://www.inkscape.org/namespaces/inkscape"
   version="1.1"
   id="Layer_1"
   x="0px"
   y="0px"
   width="15.998"
   height="35.994999"
   viewBox="0 0 15.998 35.994999"
   enable-background="new 0 0 100 100"
   xml:space="preserve"
   inkscape:version="0.91 r"
   sodipodi:docname="Thermometer.svg"><metadata
     id="metadata232"><rdf:RDF><cc:Work
         rdf:about=""><dc:format>image/svg+xml</dc:format><dc:type
           rdf:resource="http://purl.org/dc/dcmitype/StillImage" /><dc:title></dc:title></cc:Work></rdf:RDF></metadata><defs
     id="defs230" /><sodipodi:namedview
     pagecolor="#ffffff"
     bordercolor="#666666"
     borderopacity="1"
     objecttolerance="10"
     gridtolerance="10"
     guidetolerance="10"
     inkscape:pageopacity="0"
     inkscape:pageshadow="2"
     inkscape:window-width="640"
     inkscape:window-height="480"
     id="namedview228"
     showgrid="false"
     fit-margin-top="0"
     fit-margin-left="0"
     fit-margin-right="0"
     fit-margin-bottom="0"
     inkscape:zoom="2.36"
     inkscape:cx="7.999"
     inkscape:cy="17.997"
     inkscape:window-x="1359"
     inkscape:window-y="34"
     inkscape:window-maximized="0"
     inkscape:current-layer="Layer_1" /><path
     d="M 7.999,35.995 C 3.581,35.995 0,32.414 0,27.996 0,25.971 0.759,24.127 1.999,22.718 l 0,-16.719 C 1.999,2.686 4.686,0 7.999,0 c 3.312,0 5.999,2.686 5.999,5.999 l 0,16.719 c 1.24,1.409 2,3.253 2,5.278 0,4.418 -3.582,7.999 -7.999,7.999 z m 1.999,-11.444 0,-4.292 0,-10.261 0,-3.999 c 0,-1.104 -0.896,-2 -1.999,-2 -1.104,0 -2,0.896 -2,2 l 0,3.999 0,10.261 0,4.292 c -1.19,0.693 -2,1.969 -2,3.445 0,2.209 1.791,3.999 4,3.999 2.208,0 3.999,-1.79 3.999,-3.999 0,-1.477 -0.81,-2.752 -2,-3.445 z"
     id="path226"
     inkscape:connector-curvature="0"
     style="clip-rule:evenodd;fill-rule:evenodd" /></svg>