<?xml version="1.0" encoding="UTF-8" standalone="no"?>
<!-- Generator: Adobe Illustrator 15.1.0, SVG Export Plug-In . SVG Version: 6.00 Build 0)  -->

<svg
   xmlns:dc="http://purl.org/dc/elements/1.1/"
   xmlns:cc="http://creativecommons.org/ns#"
   xmlns:rdf="http://www.w3.org/1999/02/22-rdf-syntax-ns#"
   xmlns:svg="http://www.w3.org/2000/svg"
   xmlns="http://www.w3.org/2000/svg"
   xmlns:sodipodi="http://sodipodi.sourceforge.net/DTD/sodipodi-0.dtd"
   xmlns:inkscape="http://www.inkscape.org/namespaces/inkscape"
   version="1.1"
   id="Layer_1"
   x="0px"
   y="0px"
   width="15.998"
   height="35.993999"
   viewBox="0 0 15.998 35.993999"
   enable-background="new 0 0 100 100"
   xml:space="preserve"
   inkscape:version="0.91 r"
   sodipodi:docname="Thermometer-25.svg"><metadata
     id="metadata241"><rdf:RDF><cc:Work
         rdf:about=""><dc:format>image/svg+xml</dc:format><dc:type
           rdf:resource="http://purl.org/dc/dcmitype/StillImage" /><dc:title></dc:title></cc:Work></rdf:RDF></metadata><defs
     id="defs239" /><sodipodi:namedview
     pagecolor="#ffffff"
     bordercolor="#666666"
     borderopacity="1"
     objecttolerance="10"
     gridtolerance="10"
     guidetolerance="10"
     inkscape:pageopacity="0"
     inkscape:pageshadow="2"
     inkscape:window-width="640"
     inkscape:window-height="480"
     id="namedview237"
     showgrid="false"
     fit-margin-top="0"
     fit-margin-left="0"
     fit-margin-right="0"
     fit-margin-bottom="0"
     inkscape:zoom="2.36"
     inkscape:cx="7.998"
     inkscape:cy="17.865"
     inkscape:window-x="0"
     inkscape:window-y="24"
     inkscape:window-maximized="0"
     inkscape:current-layer="Layer_1" /><path
     d="M 7.998,35.994 C 3.58,35.994 0,32.414 0,27.996 0,25.971 0.758,24.127 2,22.717 L 2,5.999 C 2,2.686 4.686,0 7.998,0 c 3.314,0 6,2.686 6,5.999 l 0,16.718 c 1.24,1.41 2,3.254 2,5.279 0,4.418 -3.582,7.998 -8,7.998 z m 2,-11.443 0,-4.293 0,-10.26 0,-3.999 c 0,-1.104 -0.895,-2 -2,-2 -1.104,0 -2,0.896 -2,2 l 0,3.999 0,10.26 0,4.293 C 4.809,25.244 4,26.52 4,27.996 c 0,2.209 1.789,3.998 3.998,3.998 2.209,0 4,-1.789 4,-3.998 0,-1.476 -0.809,-2.752 -2,-3.445 z m -2,6.445 C 6.342,30.996 5,29.652 5,27.996 5,26.691 5.836,25.594 6.998,25.18 l 0,-5.184 2,0 0,5.184 c 1.162,0.414 2,1.512 2,2.816 0,1.656 -1.344,3 -3,3 z"
     id="path235"
     inkscape:connector-curvature="0"
     style="clip-rule:evenodd;fill-rule:evenodd" /></svg>