<?xml version="1.0" encoding="UTF-8" standalone="no"?>
<!-- Generator: Adobe Illustrator 15.1.0, SVG Export Plug-In . SVG Version: 6.00 Build 0)  -->

<svg
   xmlns:dc="http://purl.org/dc/elements/1.1/"
   xmlns:cc="http://creativecommons.org/ns#"
   xmlns:rdf="http://www.w3.org/1999/02/22-rdf-syntax-ns#"
   xmlns:svg="http://www.w3.org/2000/svg"
   xmlns="http://www.w3.org/2000/svg"
   xmlns:sodipodi="http://sodipodi.sourceforge.net/DTD/sodipodi-0.dtd"
   xmlns:inkscape="http://www.inkscape.org/namespaces/inkscape"
   version="1.1"
   id="Layer_1"
   x="0px"
   y="0px"
   width="15.998"
   height="35.994999"
   viewBox="0 0 15.998 35.994999"
   enable-background="new 0 0 100 100"
   xml:space="preserve"
   inkscape:version="0.91 r"
   sodipodi:docname="Thermometer-Zero.svg"><metadata
     id="metadata277"><rdf:RDF><cc:Work
         rdf:about=""><dc:format>image/svg+xml</dc:format><dc:type
           rdf:resource="http://purl.org/dc/dcmitype/StillImage" /><dc:title></dc:title></cc:Work></rdf:RDF></metadata><defs
     id="defs275" /><sodipodi:namedview
     pagecolor="#ffffff"
     bordercolor="#666666"
     borderopacity="1"
     objecttolerance="10"
     gridtolerance="10"
     guidetolerance="10"
     inkscape:pageopacity="0"
     inkscape:pageshadow="2"
     inkscape:window-width="640"
     inkscape:window-height="480"
     id="namedview273"
     showgrid="false"
     fit-margin-top="0"
     fit-margin-left="0"
     fit-margin-right="0"
     fit-margin-bottom="0"
     inkscape:zoom="2.36"
     inkscape:cx="7.999"
     inkscape:cy="17.997"
     inkscape:window-x="0"
     inkscape:window-y="24"
     inkscape:window-maximized="0"
     inkscape:current-layer="Layer_1" /><path
     d="M 7.999,35.995 C 3.582,35.995 0,32.414 0,27.996 0,25.971 0.759,24.127 2,22.718 L 2,5.999 C 2,2.686 4.687,0 7.999,0 c 3.313,0 6,2.686 6,5.999 l 0,16.719 c 1.24,1.409 1.999,3.253 1.999,5.278 0,4.418 -3.581,7.999 -7.999,7.999 z m 2,-11.444 0,-4.292 0,-10.261 0,-3.999 c 0,-1.104 -0.896,-2 -2,-2 C 6.895,3.999 6,4.895 6,5.999 l 0,3.999 0,10.261 0,4.292 c -1.19,0.693 -2,1.969 -2,3.445 0,2.209 1.791,3.999 3.999,3.999 2.209,0 4,-1.79 4,-3.999 0,-1.477 -0.81,-2.752 -2,-3.445 z m -2,6.445 c -1.656,0 -2.999,-1.344 -2.999,-3 0,-1.656 1.343,-3 2.999,-3 1.657,0 3,1.344 3,3 0,1.656 -1.343,3 -3,3 z"
     id="path271"
     inkscape:connector-curvature="0"
     style="clip-rule:evenodd;fill-rule:evenodd" /></svg>