<?xml version="1.0" encoding="UTF-8" standalone="no"?>
<!-- Generator: Adobe Illustrator 15.1.0, SVG Export Plug-In . SVG Version: 6.00 Build 0)  -->

<svg
   xmlns:dc="http://purl.org/dc/elements/1.1/"
   xmlns:cc="http://creativecommons.org/ns#"
   xmlns:rdf="http://www.w3.org/1999/02/22-rdf-syntax-ns#"
   xmlns:svg="http://www.w3.org/2000/svg"
   xmlns="http://www.w3.org/2000/svg"
   xmlns:sodipodi="http://sodipodi.sourceforge.net/DTD/sodipodi-0.dtd"
   xmlns:inkscape="http://www.inkscape.org/namespaces/inkscape"
   version="1.1"
   id="Layer_1"
   x="0px"
   y="0px"
   width="41.994999"
   height="35.994999"
   viewBox="0 0 41.994999 35.994999"
   enable-background="new 0 0 100 100"
   xml:space="preserve"
   inkscape:version="0.91 r"
   sodipodi:docname="Tornado.svg"><metadata
     id="metadata286"><rdf:RDF><cc:Work
         rdf:about=""><dc:format>image/svg+xml</dc:format><dc:type
           rdf:resource="http://purl.org/dc/dcmitype/StillImage" /><dc:title></dc:title></cc:Work></rdf:RDF></metadata><defs
     id="defs284" /><sodipodi:namedview
     pagecolor="#ffffff"
     bordercolor="#666666"
     borderopacity="1"
     objecttolerance="10"
     gridtolerance="10"
     guidetolerance="10"
     inkscape:pageopacity="0"
     inkscape:pageshadow="2"
     inkscape:window-width="640"
     inkscape:window-height="480"
     id="namedview282"
     showgrid="false"
     fit-margin-top="0"
     fit-margin-left="0"
     fit-margin-right="0"
     fit-margin-bottom="0"
     inkscape:zoom="2.36"
     inkscape:cx="21.129"
     inkscape:cy="18.455"
     inkscape:window-x="946"
     inkscape:window-y="431"
     inkscape:window-maximized="0"
     inkscape:current-layer="Layer_1" /><path
     d="M 39.995,3.999 2,3.999 C 0.896,3.999 0,3.103 0,2 0,0.896 0.896,0 2,0 l 37.995,0 c 1.104,0 2,0.896 2,2 0,1.103 -0.895,1.999 -2,1.999 z m -35.995,4 29.996,0 c 1.104,0 2,0.896 2,2 0,1.104 -0.896,1.999 -2,1.999 L 4,11.998 c -1.104,0 -2,-0.896 -2,-1.999 0,-1.105 0.896,-2 2,-2 z m 11.998,7.999 21.998,0 c 1.104,0 1.999,0.896 1.999,1.999 0,1.104 -0.895,2 -1.999,2 l -21.998,0 c -1.104,0 -1.999,-0.896 -1.999,-2 0,-1.103 0.895,-1.999 1.999,-1.999 z m 2,15.998 5.999,0 c 1.104,0 2,0.896 2,1.999 0,1.104 -0.896,2 -2,2 l -5.999,0 c -1.104,0 -2,-0.896 -2,-2 0,-1.103 0.896,-1.999 2,-1.999 z m 1,-6 c 0,-1.104 0.896,-1.999 2,-1.999 l 13.998,0 c 1.104,0 2,0.896 2,1.999 0,1.104 -0.896,2 -2,2 l -13.998,0 c -1.104,0 -2,-0.895 -2,-2 z"
     id="path280"
     inkscape:connector-curvature="0"
     style="clip-rule:evenodd;fill-rule:evenodd" /></svg>